  0
SECTION
  2
HEADER
  9
$ANGBASE
  50
0.0
  9
$ANGDIR
  70
1
  9
$MEASUREMENT
  70
0
  0
ENDSEC
  0
SECTION
  2
TABLES
  0
TABLE
  2
LTYPE
  70
4
  0
LTYPE
  5
40F
  2
CONTINUOUS
  70
0
  3
Solid line
  72
65
  73
0
  40
0.0
  0
LTYPE
  5
410
  2
DASHDOT
 70
0
  3
Dash Dot ____ _ ____ _
 72
65
 73
4
 40
2.0
 49
1.25
 49
-0.25
 49
0.25
 49
-0.25
  0
LTYPE
  5
411
  2
DASHED
 70
0
  3
Dashed __ __ __ __ __
 72
65
 73
2
 40
0.75
 49
0.5
 49
-0.25
  0
LTYPE
  5
43B
  2
DOTTED
 70
0
  3
Dotted .  .  .  .
 72
65
 73
2
 40
0.2
 49
0.0
 49
-0.2
  0
ENDTAB
  0
TABLE
  2
STYLE
  70
4
  0
STYLE
  2
KICAD
  70
0
  40
0
  41
1
  42
1
  50
0
  71
0
  3
isocp.shx
  0
STYLE
  2
KICADB
  70
0
  40
0
  41
1
  42
1
  50
0
  71
0
  3
isocp.shx
  0
STYLE
  2
KICADI
  70
0
  40
0
  41
1
  42
1
  50
15
  71
0
  3
isocp.shx
  0
STYLE
  2
KICADBI
  70
0
  40
0
  41
1
  42
1
  50
15
  71
0
  3
isocp.shx
  0
ENDTAB
  0
TABLE
  2
LAYER
  70
1
  0
LAYER
  2
BLACK
  70
0
  62
7
  6
CONTINUOUS
  0
ENDTAB
  0
ENDSEC
  0
SECTION
  2
ENTITIES
0
LINE
8
BLACK
6
CONTINUOUS
10
0.1706643307086614
20
-2.2462470078740155
11
0.1792486614173228
21
-2.2485471653543305
0
LINE
8
BLACK
6
CONTINUOUS
10
0.1792486614173228
20
-2.2485471653543305
11
0.1873031496062992
21
-2.252303031496063
0
LINE
8
BLACK
6
CONTINUOUS
10
0.1873031496062992
20
-2.252303031496063
11
0.1945830708661417
21
-2.2574004724409447
0
LINE
8
BLACK
6
CONTINUOUS
10
0.1945830708661417
20
-2.2574004724409447
11
0.2008672440944882
21
-2.2636846456692914
0
LINE
8
BLACK
6
CONTINUOUS
10
0.2008672440944882
20
-2.2636846456692914
11
0.2059646850393701
21
-2.2709645669291336
0
LINE
8
BLACK
6
CONTINUOUS
10
0.2059646850393701
20
-2.2709645669291336
11
0.2097205511811024
21
-2.27901905511811
0
LINE
8
BLACK
6
CONTINUOUS
10
0.2097205511811024
20
-2.27901905511811
11
0.2120207086614173
21
-2.2876033858267717
0
LINE
8
BLACK
6
CONTINUOUS
10
0.2120207086614173
20
-2.2876033858267717
11
0.2127952755905512
21
-2.2964566929133858
0
LINE
8
BLACK
6
CONTINUOUS
10
0.2127952755905512
20
-2.2964566929133858
11
0.2120207086614173
21
-2.30531
0
LINE
8
BLACK
6
CONTINUOUS
10
0.2120207086614173
20
-2.30531
11
0.2097205511811024
21
-2.3138943307086612
0
LINE
8
BLACK
6
CONTINUOUS
10
0.2097205511811024
20
-2.3138943307086612
11
0.2059646850393701
21
-2.3219488188976376
0
LINE
8
BLACK
6
CONTINUOUS
10
0.2059646850393701
20
-2.3219488188976376
11
0.2008672440944882
21
-2.3292287401574803
0
LINE
8
BLACK
6
CONTINUOUS
10
0.2008672440944882
20
-2.3292287401574803
11
0.1945830708661417
21
-2.3355129133858266
0
LINE
8
BLACK
6
CONTINUOUS
10
0.1945830708661417
20
-2.3355129133858266
11
0.1873031496062992
21
-2.3406103543307086
0
LINE
8
BLACK
6
CONTINUOUS
10
0.1873031496062992
20
-2.3406103543307086
11
0.1792486614173228
21
-2.3443662204724407
0
LINE
8
BLACK
6
CONTINUOUS
10
0.1792486614173228
20
-2.3443662204724407
11
0.1706643307086614
21
-2.3466663779527557
0
LINE
8
BLACK
6
CONTINUOUS
10
0.1706643307086614
20
-2.3466663779527557
11
0.1618110236220472
21
-2.3474409448818898
0
LINE
8
BLACK
6
CONTINUOUS
10
0.1618110236220472
20
-2.3474409448818898
11
0.1529577165354331
21
-2.3466663779527557
0
LINE
8
BLACK
6
CONTINUOUS
10
0.1529577165354331
20
-2.3466663779527557
11
0.1443733858267716
21
-2.3443662204724407
0
LINE
8
BLACK
6
CONTINUOUS
10
0.1443733858267716
20
-2.3443662204724407
11
0.1363188976377953
21
-2.3406103543307086
0
LINE
8
BLACK
6
CONTINUOUS
10
0.1363188976377953
20
-2.3406103543307086
11
0.1290389763779528
21
-2.3355129133858266
0
LINE
8
BLACK
6
CONTINUOUS
10
0.1290389763779528
20
-2.3355129133858266
11
0.1227548031496063
21
-2.3292287401574803
0
LINE
8
BLACK
6
CONTINUOUS
10
0.1227548031496063
20
-2.3292287401574803
11
0.1176573622047244
21
-2.3219488188976376
0
LINE
8
BLACK
6
CONTINUOUS
10
0.1176573622047244
20
-2.3219488188976376
11
0.1139014960629921
21
-2.3138943307086612
0
LINE
8
BLACK
6
CONTINUOUS
10
0.1139014960629921
20
-2.3138943307086612
11
0.1116013385826772
21
-2.30531
0
LINE
8
BLACK
6
CONTINUOUS
10
0.1116013385826772
20
-2.30531
11
0.1108267716535433
21
-2.2964566929133858
0
LINE
8
BLACK
6
CONTINUOUS
10
0.1108267716535433
20
-2.2964566929133858
11
0.1116013385826772
21
-2.2876033858267717
0
LINE
8
BLACK
6
CONTINUOUS
10
0.1116013385826772
20
-2.2876033858267717
11
0.1139014960629921
21
-2.27901905511811
0
LINE
8
BLACK
6
CONTINUOUS
10
0.1139014960629921
20
-2.27901905511811
11
0.1176573622047244
21
-2.2709645669291336
0
LINE
8
BLACK
6
CONTINUOUS
10
0.1176573622047244
20
-2.2709645669291336
11
0.1227548031496063
21
-2.2636846456692914
0
LINE
8
BLACK
6
CONTINUOUS
10
0.1227548031496063
20
-2.2636846456692914
11
0.1290389763779528
21
-2.2574004724409447
0
LINE
8
BLACK
6
CONTINUOUS
10
0.1290389763779528
20
-2.2574004724409447
11
0.1363188976377953
21
-2.252303031496063
0
LINE
8
BLACK
6
CONTINUOUS
10
0.1363188976377953
20
-2.252303031496063
11
0.1443733858267716
21
-2.2485471653543305
0
LINE
8
BLACK
6
CONTINUOUS
10
0.1443733858267716
20
-2.2485471653543305
11
0.1529577165354331
21
-2.2462470078740155
0
LINE
8
BLACK
6
CONTINUOUS
10
0.1529577165354331
20
-2.2462470078740155
11
0.1618110236220472
21
-2.2454724409448819
0
LINE
8
BLACK
6
CONTINUOUS
10
0.1618110236220472
20
-2.2454724409448819
11
0.1706643307086614
21
-2.2462470078740155
0
LINE
8
BLACK
6
CONTINUOUS
10
0.1133555511811024
20
-2.3050007086614173
11
0.1155753543307087
21
-2.3132851181102363
0
LINE
8
BLACK
6
CONTINUOUS
10
0.1155753543307087
20
-2.3132851181102363
11
0.1192
21
-2.3210581889763779
0
LINE
8
BLACK
6
CONTINUOUS
10
0.1192
20
-2.3210581889763779
11
0.1241193307086614
21
-2.3280837795275588
0
LINE
8
BLACK
6
CONTINUOUS
10
0.1241193307086614
20
-2.3280837795275588
11
0.130183937007874
21
-2.3341483858267718
0
LINE
8
BLACK
6
CONTINUOUS
10
0.130183937007874
20
-2.3341483858267718
11
0.1372095275590551
21
-2.3390677165354332
0
LINE
8
BLACK
6
CONTINUOUS
10
0.1372095275590551
20
-2.3390677165354332
11
0.1449825984251968
21
-2.3426923622047244
0
LINE
8
BLACK
6
CONTINUOUS
10
0.1449825984251968
20
-2.3426923622047244
11
0.1532670078740157
21
-2.3449121653543306
0
LINE
8
BLACK
6
CONTINUOUS
10
0.1532670078740157
20
-2.3449121653543306
11
0.1618110236220472
21
-2.3456596850393701
0
LINE
8
BLACK
6
CONTINUOUS
10
0.1618110236220472
20
-2.3456596850393701
11
0.1703550393700787
21
-2.3449121653543306
0
LINE
8
BLACK
6
CONTINUOUS
10
0.1703550393700787
20
-2.3449121653543306
11
0.1786394488188976
21
-2.3426923622047244
0
LINE
8
BLACK
6
CONTINUOUS
10
0.1786394488188976
20
-2.3426923622047244
11
0.1864125196850394
21
-2.3390677165354332
0
LINE
8
BLACK
6
CONTINUOUS
10
0.1864125196850394
20
-2.3390677165354332
11
0.1934381102362205
21
-2.3341483858267718
0
LINE
8
BLACK
6
CONTINUOUS
10
0.1934381102362205
20
-2.3341483858267718
11
0.1995027165354331
21
-2.3280837795275588
0
LINE
8
BLACK
6
CONTINUOUS
10
0.1995027165354331
20
-2.3280837795275588
11
0.2044220472440945
21
-2.3210581889763779
0
LINE
8
BLACK
6
CONTINUOUS
10
0.2044220472440945
20
-2.3210581889763779
11
0.2080466929133858
21
-2.3132851181102363
0
LINE
8
BLACK
6
CONTINUOUS
10
0.2080466929133858
20
-2.3132851181102363
11
0.2102664960629921
21
-2.3050007086614173
0
LINE
8
BLACK
6
CONTINUOUS
10
0.2102664960629921
20
-2.3050007086614173
11
0.2110140157480315
21
-2.2964566929133858
0
LINE
8
BLACK
6
CONTINUOUS
10
0.2110140157480315
20
-2.2964566929133858
11
0.2102664960629921
21
-2.2879126771653544
0
LINE
8
BLACK
6
CONTINUOUS
10
0.2102664960629921
20
-2.2879126771653544
11
0.2080466929133858
21
-2.2796282677165354
0
LINE
8
BLACK
6
CONTINUOUS
10
0.2080466929133858
20
-2.2796282677165354
11
0.2044220472440945
21
-2.2718551968503937
0
LINE
8
BLACK
6
CONTINUOUS
10
0.2044220472440945
20
-2.2718551968503937
11
0.1995027165354331
21
-2.2648296062992124
0
LINE
8
BLACK
6
CONTINUOUS
10
0.1995027165354331
20
-2.2648296062992124
11
0.1934381102362205
21
-2.2587649999999999
0
LINE
8
BLACK
6
CONTINUOUS
10
0.1934381102362205
20
-2.2587649999999999
11
0.1864125196850394
21
-2.2538456692913384
0
LINE
8
BLACK
6
CONTINUOUS
10
0.1864125196850394
20
-2.2538456692913384
11
0.1786394488188976
21
-2.2502210236220472
0
LINE
8
BLACK
6
CONTINUOUS
10
0.1786394488188976
20
-2.2502210236220472
11
0.1703550393700787
21
-2.2480012204724411
0
LINE
8
BLACK
6
CONTINUOUS
10
0.1703550393700787
20
-2.2480012204724411
11
0.1618110236220472
21
-2.2472537007874016
0
LINE
8
BLACK
6
CONTINUOUS
10
0.1618110236220472
20
-2.2472537007874016
11
0.1532670078740157
21
-2.2480012204724411
0
LINE
8
BLACK
6
CONTINUOUS
10
0.1532670078740157
20
-2.2480012204724411
11
0.1449825984251968
21
-2.2502210236220472
0
LINE
8
BLACK
6
CONTINUOUS
10
0.1449825984251968
20
-2.2502210236220472
11
0.1372095275590551
21
-2.2538456692913384
0
LINE
8
BLACK
6
CONTINUOUS
10
0.1372095275590551
20
-2.2538456692913384
11
0.130183937007874
21
-2.2587649999999999
0
LINE
8
BLACK
6
CONTINUOUS
10
0.130183937007874
20
-2.2587649999999999
11
0.1241193307086614
21
-2.2648296062992124
0
LINE
8
BLACK
6
CONTINUOUS
10
0.1241193307086614
20
-2.2648296062992124
11
0.1192
21
-2.2718551968503937
0
LINE
8
BLACK
6
CONTINUOUS
10
0.1192
20
-2.2718551968503937
11
0.1155753543307087
21
-2.2796282677165354
0
LINE
8
BLACK
6
CONTINUOUS
10
0.1155753543307087
20
-2.2796282677165354
11
0.1133555511811024
21
-2.2879126771653544
0
LINE
8
BLACK
6
CONTINUOUS
10
0.1133555511811024
20
-2.2879126771653544
11
0.112608031496063
21
-2.2964566929133858
0
LINE
8
BLACK
6
CONTINUOUS
10
0.112608031496063
20
-2.2964566929133858
11
0.1133555511811024
21
-2.3050007086614173
0
LINE
8
BLACK
6
CONTINUOUS
10
0.8706643307086614
20
-2.2462470078740155
11
0.8792486614173228
21
-2.2485471653543305
0
LINE
8
BLACK
6
CONTINUOUS
10
0.8792486614173228
20
-2.2485471653543305
11
0.8873031496062992
21
-2.252303031496063
0
LINE
8
BLACK
6
CONTINUOUS
10
0.8873031496062992
20
-2.252303031496063
11
0.8945830708661417
21
-2.2574004724409447
0
LINE
8
BLACK
6
CONTINUOUS
10
0.8945830708661417
20
-2.2574004724409447
11
0.9008672440944882
21
-2.2636846456692914
0
LINE
8
BLACK
6
CONTINUOUS
10
0.9008672440944882
20
-2.2636846456692914
11
0.9059646850393701
21
-2.2709645669291336
0
LINE
8
BLACK
6
CONTINUOUS
10
0.9059646850393701
20
-2.2709645669291336
11
0.9097205511811023
21
-2.27901905511811
0
LINE
8
BLACK
6
CONTINUOUS
10
0.9097205511811023
20
-2.27901905511811
11
0.9120207086614173
21
-2.2876033858267717
0
LINE
8
BLACK
6
CONTINUOUS
10
0.9120207086614173
20
-2.2876033858267717
11
0.9127952755905512
21
-2.2964566929133858
0
LINE
8
BLACK
6
CONTINUOUS
10
0.9127952755905512
20
-2.2964566929133858
11
0.9120207086614173
21
-2.30531
0
LINE
8
BLACK
6
CONTINUOUS
10
0.9120207086614173
20
-2.30531
11
0.9097205511811023
21
-2.3138943307086612
0
LINE
8
BLACK
6
CONTINUOUS
10
0.9097205511811023
20
-2.3138943307086612
11
0.9059646850393701
21
-2.3219488188976376
0
LINE
8
BLACK
6
CONTINUOUS
10
0.9059646850393701
20
-2.3219488188976376
11
0.9008672440944882
21
-2.3292287401574803
0
LINE
8
BLACK
6
CONTINUOUS
10
0.9008672440944882
20
-2.3292287401574803
11
0.8945830708661417
21
-2.3355129133858266
0
LINE
8
BLACK
6
CONTINUOUS
10
0.8945830708661417
20
-2.3355129133858266
11
0.8873031496062992
21
-2.3406103543307086
0
LINE
8
BLACK
6
CONTINUOUS
10
0.8873031496062992
20
-2.3406103543307086
11
0.8792486614173228
21
-2.3443662204724407
0
LINE
8
BLACK
6
CONTINUOUS
10
0.8792486614173228
20
-2.3443662204724407
11
0.8706643307086614
21
-2.3466663779527557
0
LINE
8
BLACK
6
CONTINUOUS
10
0.8706643307086614
20
-2.3466663779527557
11
0.8618110236220472
21
-2.3474409448818898
0
LINE
8
BLACK
6
CONTINUOUS
10
0.8618110236220472
20
-2.3474409448818898
11
0.8529577165354331
21
-2.3466663779527557
0
LINE
8
BLACK
6
CONTINUOUS
10
0.8529577165354331
20
-2.3466663779527557
11
0.8443733858267717
21
-2.3443662204724407
0
LINE
8
BLACK
6
CONTINUOUS
10
0.8443733858267717
20
-2.3443662204724407
11
0.8363188976377952
21
-2.3406103543307086
0
LINE
8
BLACK
6
CONTINUOUS
10
0.8363188976377952
20
-2.3406103543307086
11
0.8290389763779528
21
-2.3355129133858266
0
LINE
8
BLACK
6
CONTINUOUS
10
0.8290389763779528
20
-2.3355129133858266
11
0.8227548031496063
21
-2.3292287401574803
0
LINE
8
BLACK
6
CONTINUOUS
10
0.8227548031496063
20
-2.3292287401574803
11
0.8176573622047244
21
-2.3219488188976376
0
LINE
8
BLACK
6
CONTINUOUS
10
0.8176573622047244
20
-2.3219488188976376
11
0.8139014960629921
21
-2.3138943307086612
0
LINE
8
BLACK
6
CONTINUOUS
10
0.8139014960629921
20
-2.3138943307086612
11
0.8116013385826771
21
-2.30531
0
LINE
8
BLACK
6
CONTINUOUS
10
0.8116013385826771
20
-2.30531
11
0.8108267716535433
21
-2.2964566929133858
0
LINE
8
BLACK
6
CONTINUOUS
10
0.8108267716535433
20
-2.2964566929133858
11
0.8116013385826771
21
-2.2876033858267717
0
LINE
8
BLACK
6
CONTINUOUS
10
0.8116013385826771
20
-2.2876033858267717
11
0.8139014960629921
21
-2.27901905511811
0
LINE
8
BLACK
6
CONTINUOUS
10
0.8139014960629921
20
-2.27901905511811
11
0.8176573622047244
21
-2.2709645669291336
0
LINE
8
BLACK
6
CONTINUOUS
10
0.8176573622047244
20
-2.2709645669291336
11
0.8227548031496063
21
-2.2636846456692914
0
LINE
8
BLACK
6
CONTINUOUS
10
0.8227548031496063
20
-2.2636846456692914
11
0.8290389763779528
21
-2.2574004724409447
0
LINE
8
BLACK
6
CONTINUOUS
10
0.8290389763779528
20
-2.2574004724409447
11
0.8363188976377952
21
-2.252303031496063
0
LINE
8
BLACK
6
CONTINUOUS
10
0.8363188976377952
20
-2.252303031496063
11
0.8443733858267717
21
-2.2485471653543305
0
LINE
8
BLACK
6
CONTINUOUS
10
0.8443733858267717
20
-2.2485471653543305
11
0.8529577165354331
21
-2.2462470078740155
0
LINE
8
BLACK
6
CONTINUOUS
10
0.8529577165354331
20
-2.2462470078740155
11
0.8618110236220472
21
-2.2454724409448819
0
LINE
8
BLACK
6
CONTINUOUS
10
0.8618110236220472
20
-2.2454724409448819
11
0.8706643307086614
21
-2.2462470078740155
0
LINE
8
BLACK
6
CONTINUOUS
10
0.8133555511811024
20
-2.3050007086614173
11
0.8155753543307086
21
-2.3132851181102363
0
LINE
8
BLACK
6
CONTINUOUS
10
0.8155753543307086
20
-2.3132851181102363
11
0.8191999999999999
21
-2.3210581889763779
0
LINE
8
BLACK
6
CONTINUOUS
10
0.8191999999999999
20
-2.3210581889763779
11
0.8241193307086614
21
-2.3280837795275588
0
LINE
8
BLACK
6
CONTINUOUS
10
0.8241193307086614
20
-2.3280837795275588
11
0.830183937007874
21
-2.3341483858267718
0
LINE
8
BLACK
6
CONTINUOUS
10
0.830183937007874
20
-2.3341483858267718
11
0.8372095275590551
21
-2.3390677165354332
0
LINE
8
BLACK
6
CONTINUOUS
10
0.8372095275590551
20
-2.3390677165354332
11
0.8449825984251969
21
-2.3426923622047244
0
LINE
8
BLACK
6
CONTINUOUS
10
0.8449825984251969
20
-2.3426923622047244
11
0.8532670078740158
21
-2.3449121653543306
0
LINE
8
BLACK
6
CONTINUOUS
10
0.8532670078740158
20
-2.3449121653543306
11
0.8618110236220472
21
-2.3456596850393701
0
LINE
8
BLACK
6
CONTINUOUS
10
0.8618110236220472
20
-2.3456596850393701
11
0.8703550393700787
21
-2.3449121653543306
0
LINE
8
BLACK
6
CONTINUOUS
10
0.8703550393700787
20
-2.3449121653543306
11
0.8786394488188977
21
-2.3426923622047244
0
LINE
8
BLACK
6
CONTINUOUS
10
0.8786394488188977
20
-2.3426923622047244
11
0.8864125196850393
21
-2.3390677165354332
0
LINE
8
BLACK
6
CONTINUOUS
10
0.8864125196850393
20
-2.3390677165354332
11
0.8934381102362204
21
-2.3341483858267718
0
LINE
8
BLACK
6
CONTINUOUS
10
0.8934381102362204
20
-2.3341483858267718
11
0.899502716535433
21
-2.3280837795275588
0
LINE
8
BLACK
6
CONTINUOUS
10
0.899502716535433
20
-2.3280837795275588
11
0.9044220472440945
21
-2.3210581889763779
0
LINE
8
BLACK
6
CONTINUOUS
10
0.9044220472440945
20
-2.3210581889763779
11
0.9080466929133858
21
-2.3132851181102363
0
LINE
8
BLACK
6
CONTINUOUS
10
0.9080466929133858
20
-2.3132851181102363
11
0.9102664960629921
21
-2.3050007086614173
0
LINE
8
BLACK
6
CONTINUOUS
10
0.9102664960629921
20
-2.3050007086614173
11
0.9110140157480314
21
-2.2964566929133858
0
LINE
8
BLACK
6
CONTINUOUS
10
0.9110140157480314
20
-2.2964566929133858
11
0.9102664960629921
21
-2.2879126771653544
0
LINE
8
BLACK
6
CONTINUOUS
10
0.9102664960629921
20
-2.2879126771653544
11
0.9080466929133858
21
-2.2796282677165354
0
LINE
8
BLACK
6
CONTINUOUS
10
0.9080466929133858
20
-2.2796282677165354
11
0.9044220472440945
21
-2.2718551968503937
0
LINE
8
BLACK
6
CONTINUOUS
10
0.9044220472440945
20
-2.2718551968503937
11
0.899502716535433
21
-2.2648296062992124
0
LINE
8
BLACK
6
CONTINUOUS
10
0.899502716535433
20
-2.2648296062992124
11
0.8934381102362204
21
-2.2587649999999999
0
LINE
8
BLACK
6
CONTINUOUS
10
0.8934381102362204
20
-2.2587649999999999
11
0.8864125196850393
21
-2.2538456692913384
0
LINE
8
BLACK
6
CONTINUOUS
10
0.8864125196850393
20
-2.2538456692913384
11
0.8786394488188977
21
-2.2502210236220472
0
LINE
8
BLACK
6
CONTINUOUS
10
0.8786394488188977
20
-2.2502210236220472
11
0.8703550393700787
21
-2.2480012204724411
0
LINE
8
BLACK
6
CONTINUOUS
10
0.8703550393700787
20
-2.2480012204724411
11
0.8618110236220472
21
-2.2472537007874016
0
LINE
8
BLACK
6
CONTINUOUS
10
0.8618110236220472
20
-2.2472537007874016
11
0.8532670078740158
21
-2.2480012204724411
0
LINE
8
BLACK
6
CONTINUOUS
10
0.8532670078740158
20
-2.2480012204724411
11
0.8449825984251969
21
-2.2502210236220472
0
LINE
8
BLACK
6
CONTINUOUS
10
0.8449825984251969
20
-2.2502210236220472
11
0.8372095275590551
21
-2.2538456692913384
0
LINE
8
BLACK
6
CONTINUOUS
10
0.8372095275590551
20
-2.2538456692913384
11
0.830183937007874
21
-2.2587649999999999
0
LINE
8
BLACK
6
CONTINUOUS
10
0.830183937007874
20
-2.2587649999999999
11
0.8241193307086614
21
-2.2648296062992124
0
LINE
8
BLACK
6
CONTINUOUS
10
0.8241193307086614
20
-2.2648296062992124
11
0.8191999999999999
21
-2.2718551968503937
0
LINE
8
BLACK
6
CONTINUOUS
10
0.8191999999999999
20
-2.2718551968503937
11
0.8155753543307086
21
-2.2796282677165354
0
LINE
8
BLACK
6
CONTINUOUS
10
0.8155753543307086
20
-2.2796282677165354
11
0.8133555511811024
21
-2.2879126771653544
0
LINE
8
BLACK
6
CONTINUOUS
10
0.8133555511811024
20
-2.2879126771653544
11
0.812608031496063
21
-2.2964566929133858
0
LINE
8
BLACK
6
CONTINUOUS
10
0.812608031496063
20
-2.2964566929133858
11
0.8133555511811024
21
-2.3050007086614173
0
LINE
8
BLACK
6
CONTINUOUS
10
0.1706643307086614
20
-0.4462470078740157
11
0.1792486614173228
21
-0.4485471653543307
0
LINE
8
BLACK
6
CONTINUOUS
10
0.1792486614173228
20
-0.4485471653543307
11
0.1873031496062992
21
-0.452303031496063
0
LINE
8
BLACK
6
CONTINUOUS
10
0.1873031496062992
20
-0.452303031496063
11
0.1945830708661417
21
-0.4574004724409449
0
LINE
8
BLACK
6
CONTINUOUS
10
0.1945830708661417
20
-0.4574004724409449
11
0.2008672440944882
21
-0.4636846456692914
0
LINE
8
BLACK
6
CONTINUOUS
10
0.2008672440944882
20
-0.4636846456692914
11
0.2059646850393701
21
-0.4709645669291339
0
LINE
8
BLACK
6
CONTINUOUS
10
0.2059646850393701
20
-0.4709645669291339
11
0.2097205511811024
21
-0.4790190551181102
0
LINE
8
BLACK
6
CONTINUOUS
10
0.2097205511811024
20
-0.4790190551181102
11
0.2120207086614173
21
-0.4876033858267717
0
LINE
8
BLACK
6
CONTINUOUS
10
0.2120207086614173
20
-0.4876033858267717
11
0.2127952755905512
21
-0.4964566929133858
0
LINE
8
BLACK
6
CONTINUOUS
10
0.2127952755905512
20
-0.4964566929133858
11
0.2120207086614173
21
-0.50531
0
LINE
8
BLACK
6
CONTINUOUS
10
0.2120207086614173
20
-0.50531
11
0.2097205511811024
21
-0.5138943307086614
0
LINE
8
BLACK
6
CONTINUOUS
10
0.2097205511811024
20
-0.5138943307086614
11
0.2059646850393701
21
-0.5219488188976378
0
LINE
8
BLACK
6
CONTINUOUS
10
0.2059646850393701
20
-0.5219488188976378
11
0.2008672440944882
21
-0.5292287401574803
0
LINE
8
BLACK
6
CONTINUOUS
10
0.2008672440944882
20
-0.5292287401574803
11
0.1945830708661417
21
-0.5355129133858267
0
LINE
8
BLACK
6
CONTINUOUS
10
0.1945830708661417
20
-0.5355129133858267
11
0.1873031496062992
21
-0.5406103543307087
0
LINE
8
BLACK
6
CONTINUOUS
10
0.1873031496062992
20
-0.5406103543307087
11
0.1792486614173228
21
-0.544366220472441
0
LINE
8
BLACK
6
CONTINUOUS
10
0.1792486614173228
20
-0.544366220472441
11
0.1706643307086614
21
-0.5466663779527559
0
LINE
8
BLACK
6
CONTINUOUS
10
0.1706643307086614
20
-0.5466663779527559
11
0.1618110236220472
21
-0.5474409448818898
0
LINE
8
BLACK
6
CONTINUOUS
10
0.1618110236220472
20
-0.5474409448818898
11
0.1529577165354331
21
-0.5466663779527559
0
LINE
8
BLACK
6
CONTINUOUS
10
0.1529577165354331
20
-0.5466663779527559
11
0.1443733858267716
21
-0.544366220472441
0
LINE
8
BLACK
6
CONTINUOUS
10
0.1443733858267716
20
-0.544366220472441
11
0.1363188976377953
21
-0.5406103543307087
0
LINE
8
BLACK
6
CONTINUOUS
10
0.1363188976377953
20
-0.5406103543307087
11
0.1290389763779528
21
-0.5355129133858267
0
LINE
8
BLACK
6
CONTINUOUS
10
0.1290389763779528
20
-0.5355129133858267
11
0.1227548031496063
21
-0.5292287401574803
0
LINE
8
BLACK
6
CONTINUOUS
10
0.1227548031496063
20
-0.5292287401574803
11
0.1176573622047244
21
-0.5219488188976378
0
LINE
8
BLACK
6
CONTINUOUS
10
0.1176573622047244
20
-0.5219488188976378
11
0.1139014960629921
21
-0.5138943307086614
0
LINE
8
BLACK
6
CONTINUOUS
10
0.1139014960629921
20
-0.5138943307086614
11
0.1116013385826772
21
-0.50531
0
LINE
8
BLACK
6
CONTINUOUS
10
0.1116013385826772
20
-0.50531
11
0.1108267716535433
21
-0.4964566929133858
0
LINE
8
BLACK
6
CONTINUOUS
10
0.1108267716535433
20
-0.4964566929133858
11
0.1116013385826772
21
-0.4876033858267717
0
LINE
8
BLACK
6
CONTINUOUS
10
0.1116013385826772
20
-0.4876033858267717
11
0.1139014960629921
21
-0.4790190551181102
0
LINE
8
BLACK
6
CONTINUOUS
10
0.1139014960629921
20
-0.4790190551181102
11
0.1176573622047244
21
-0.4709645669291339
0
LINE
8
BLACK
6
CONTINUOUS
10
0.1176573622047244
20
-0.4709645669291339
11
0.1227548031496063
21
-0.4636846456692914
0
LINE
8
BLACK
6
CONTINUOUS
10
0.1227548031496063
20
-0.4636846456692914
11
0.1290389763779528
21
-0.4574004724409449
0
LINE
8
BLACK
6
CONTINUOUS
10
0.1290389763779528
20
-0.4574004724409449
11
0.1363188976377953
21
-0.452303031496063
0
LINE
8
BLACK
6
CONTINUOUS
10
0.1363188976377953
20
-0.452303031496063
11
0.1443733858267716
21
-0.4485471653543307
0
LINE
8
BLACK
6
CONTINUOUS
10
0.1443733858267716
20
-0.4485471653543307
11
0.1529577165354331
21
-0.4462470078740157
0
LINE
8
BLACK
6
CONTINUOUS
10
0.1529577165354331
20
-0.4462470078740157
11
0.1618110236220472
21
-0.4454724409448819
0
LINE
8
BLACK
6
CONTINUOUS
10
0.1618110236220472
20
-0.4454724409448819
11
0.1706643307086614
21
-0.4462470078740157
0
LINE
8
BLACK
6
CONTINUOUS
10
0.1133555511811024
20
-0.5050007086614173
11
0.1155753543307087
21
-0.5132851181102362
0
LINE
8
BLACK
6
CONTINUOUS
10
0.1155753543307087
20
-0.5132851181102362
11
0.1192
21
-0.5210581889763779
0
LINE
8
BLACK
6
CONTINUOUS
10
0.1192
20
-0.5210581889763779
11
0.1241193307086614
21
-0.528083779527559
0
LINE
8
BLACK
6
CONTINUOUS
10
0.1241193307086614
20
-0.528083779527559
11
0.130183937007874
21
-0.5341483858267716
0
LINE
8
BLACK
6
CONTINUOUS
10
0.130183937007874
20
-0.5341483858267716
11
0.1372095275590551
21
-0.5390677165354331
0
LINE
8
BLACK
6
CONTINUOUS
10
0.1372095275590551
20
-0.5390677165354331
11
0.1449825984251968
21
-0.5426923622047244
0
LINE
8
BLACK
6
CONTINUOUS
10
0.1449825984251968
20
-0.5426923622047244
11
0.1532670078740157
21
-0.5449121653543307
0
LINE
8
BLACK
6
CONTINUOUS
10
0.1532670078740157
20
-0.5449121653543307
11
0.1618110236220472
21
-0.54565968503937
0
LINE
8
BLACK
6
CONTINUOUS
10
0.1618110236220472
20
-0.54565968503937
11
0.1703550393700787
21
-0.5449121653543307
0
LINE
8
BLACK
6
CONTINUOUS
10
0.1703550393700787
20
-0.5449121653543307
11
0.1786394488188976
21
-0.5426923622047244
0
LINE
8
BLACK
6
CONTINUOUS
10
0.1786394488188976
20
-0.5426923622047244
11
0.1864125196850394
21
-0.5390677165354331
0
LINE
8
BLACK
6
CONTINUOUS
10
0.1864125196850394
20
-0.5390677165354331
11
0.1934381102362205
21
-0.5341483858267716
0
LINE
8
BLACK
6
CONTINUOUS
10
0.1934381102362205
20
-0.5341483858267716
11
0.1995027165354331
21
-0.528083779527559
0
LINE
8
BLACK
6
CONTINUOUS
10
0.1995027165354331
20
-0.528083779527559
11
0.2044220472440945
21
-0.5210581889763779
0
LINE
8
BLACK
6
CONTINUOUS
10
0.2044220472440945
20
-0.5210581889763779
11
0.2080466929133858
21
-0.5132851181102362
0
LINE
8
BLACK
6
CONTINUOUS
10
0.2080466929133858
20
-0.5132851181102362
11
0.2102664960629921
21
-0.5050007086614173
0
LINE
8
BLACK
6
CONTINUOUS
10
0.2102664960629921
20
-0.5050007086614173
11
0.2110140157480315
21
-0.4964566929133858
0
LINE
8
BLACK
6
CONTINUOUS
10
0.2110140157480315
20
-0.4964566929133858
11
0.2102664960629921
21
-0.4879126771653543
0
LINE
8
BLACK
6
CONTINUOUS
10
0.2102664960629921
20
-0.4879126771653543
11
0.2080466929133858
21
-0.4796282677165354
0
LINE
8
BLACK
6
CONTINUOUS
10
0.2080466929133858
20
-0.4796282677165354
11
0.2044220472440945
21
-0.4718551968503937
0
LINE
8
BLACK
6
CONTINUOUS
10
0.2044220472440945
20
-0.4718551968503937
11
0.1995027165354331
21
-0.4648296062992126
0
LINE
8
BLACK
6
CONTINUOUS
10
0.1995027165354331
20
-0.4648296062992126
11
0.1934381102362205
21
-0.458765
0
LINE
8
BLACK
6
CONTINUOUS
10
0.1934381102362205
20
-0.458765
11
0.1864125196850394
21
-0.4538456692913386
0
LINE
8
BLACK
6
CONTINUOUS
10
0.1864125196850394
20
-0.4538456692913386
11
0.1786394488188976
21
-0.4502210236220472
0
LINE
8
BLACK
6
CONTINUOUS
10
0.1786394488188976
20
-0.4502210236220472
11
0.1703550393700787
21
-0.448001220472441
0
LINE
8
BLACK
6
CONTINUOUS
10
0.1703550393700787
20
-0.448001220472441
11
0.1618110236220472
21
-0.4472537007874016
0
LINE
8
BLACK
6
CONTINUOUS
10
0.1618110236220472
20
-0.4472537007874016
11
0.1532670078740157
21
-0.448001220472441
0
LINE
8
BLACK
6
CONTINUOUS
10
0.1532670078740157
20
-0.448001220472441
11
0.1449825984251968
21
-0.4502210236220472
0
LINE
8
BLACK
6
CONTINUOUS
10
0.1449825984251968
20
-0.4502210236220472
11
0.1372095275590551
21
-0.4538456692913386
0
LINE
8
BLACK
6
CONTINUOUS
10
0.1372095275590551
20
-0.4538456692913386
11
0.130183937007874
21
-0.458765
0
LINE
8
BLACK
6
CONTINUOUS
10
0.130183937007874
20
-0.458765
11
0.1241193307086614
21
-0.4648296062992126
0
LINE
8
BLACK
6
CONTINUOUS
10
0.1241193307086614
20
-0.4648296062992126
11
0.1192
21
-0.4718551968503937
0
LINE
8
BLACK
6
CONTINUOUS
10
0.1192
20
-0.4718551968503937
11
0.1155753543307087
21
-0.4796282677165354
0
LINE
8
BLACK
6
CONTINUOUS
10
0.1155753543307087
20
-0.4796282677165354
11
0.1133555511811024
21
-0.4879126771653543
0
LINE
8
BLACK
6
CONTINUOUS
10
0.1133555511811024
20
-0.4879126771653543
11
0.112608031496063
21
-0.4964566929133858
0
LINE
8
BLACK
6
CONTINUOUS
10
0.112608031496063
20
-0.4964566929133858
11
0.1133555511811024
21
-0.5050007086614173
0
LINE
8
BLACK
6
CONTINUOUS
10
0.8706643307086614
20
-0.4462470078740157
11
0.8792486614173228
21
-0.4485471653543307
0
LINE
8
BLACK
6
CONTINUOUS
10
0.8792486614173228
20
-0.4485471653543307
11
0.8873031496062992
21
-0.452303031496063
0
LINE
8
BLACK
6
CONTINUOUS
10
0.8873031496062992
20
-0.452303031496063
11
0.8945830708661417
21
-0.4574004724409449
0
LINE
8
BLACK
6
CONTINUOUS
10
0.8945830708661417
20
-0.4574004724409449
11
0.9008672440944882
21
-0.4636846456692914
0
LINE
8
BLACK
6
CONTINUOUS
10
0.9008672440944882
20
-0.4636846456692914
11
0.9059646850393701
21
-0.4709645669291339
0
LINE
8
BLACK
6
CONTINUOUS
10
0.9059646850393701
20
-0.4709645669291339
11
0.9097205511811023
21
-0.4790190551181102
0
LINE
8
BLACK
6
CONTINUOUS
10
0.9097205511811023
20
-0.4790190551181102
11
0.9120207086614173
21
-0.4876033858267717
0
LINE
8
BLACK
6
CONTINUOUS
10
0.9120207086614173
20
-0.4876033858267717
11
0.9127952755905512
21
-0.4964566929133858
0
LINE
8
BLACK
6
CONTINUOUS
10
0.9127952755905512
20
-0.4964566929133858
11
0.9120207086614173
21
-0.50531
0
LINE
8
BLACK
6
CONTINUOUS
10
0.9120207086614173
20
-0.50531
11
0.9097205511811023
21
-0.5138943307086614
0
LINE
8
BLACK
6
CONTINUOUS
10
0.9097205511811023
20
-0.5138943307086614
11
0.9059646850393701
21
-0.5219488188976378
0
LINE
8
BLACK
6
CONTINUOUS
10
0.9059646850393701
20
-0.5219488188976378
11
0.9008672440944882
21
-0.5292287401574803
0
LINE
8
BLACK
6
CONTINUOUS
10
0.9008672440944882
20
-0.5292287401574803
11
0.8945830708661417
21
-0.5355129133858267
0
LINE
8
BLACK
6
CONTINUOUS
10
0.8945830708661417
20
-0.5355129133858267
11
0.8873031496062992
21
-0.5406103543307087
0
LINE
8
BLACK
6
CONTINUOUS
10
0.8873031496062992
20
-0.5406103543307087
11
0.8792486614173228
21
-0.544366220472441
0
LINE
8
BLACK
6
CONTINUOUS
10
0.8792486614173228
20
-0.544366220472441
11
0.8706643307086614
21
-0.5466663779527559
0
LINE
8
BLACK
6
CONTINUOUS
10
0.8706643307086614
20
-0.5466663779527559
11
0.8618110236220472
21
-0.5474409448818898
0
LINE
8
BLACK
6
CONTINUOUS
10
0.8618110236220472
20
-0.5474409448818898
11
0.8529577165354331
21
-0.5466663779527559
0
LINE
8
BLACK
6
CONTINUOUS
10
0.8529577165354331
20
-0.5466663779527559
11
0.8443733858267717
21
-0.544366220472441
0
LINE
8
BLACK
6
CONTINUOUS
10
0.8443733858267717
20
-0.544366220472441
11
0.8363188976377952
21
-0.5406103543307087
0
LINE
8
BLACK
6
CONTINUOUS
10
0.8363188976377952
20
-0.5406103543307087
11
0.8290389763779528
21
-0.5355129133858267
0
LINE
8
BLACK
6
CONTINUOUS
10
0.8290389763779528
20
-0.5355129133858267
11
0.8227548031496063
21
-0.5292287401574803
0
LINE
8
BLACK
6
CONTINUOUS
10
0.8227548031496063
20
-0.5292287401574803
11
0.8176573622047244
21
-0.5219488188976378
0
LINE
8
BLACK
6
CONTINUOUS
10
0.8176573622047244
20
-0.5219488188976378
11
0.8139014960629921
21
-0.5138943307086614
0
LINE
8
BLACK
6
CONTINUOUS
10
0.8139014960629921
20
-0.5138943307086614
11
0.8116013385826771
21
-0.50531
0
LINE
8
BLACK
6
CONTINUOUS
10
0.8116013385826771
20
-0.50531
11
0.8108267716535433
21
-0.4964566929133858
0
LINE
8
BLACK
6
CONTINUOUS
10
0.8108267716535433
20
-0.4964566929133858
11
0.8116013385826771
21
-0.4876033858267717
0
LINE
8
BLACK
6
CONTINUOUS
10
0.8116013385826771
20
-0.4876033858267717
11
0.8139014960629921
21
-0.4790190551181102
0
LINE
8
BLACK
6
CONTINUOUS
10
0.8139014960629921
20
-0.4790190551181102
11
0.8176573622047244
21
-0.4709645669291339
0
LINE
8
BLACK
6
CONTINUOUS
10
0.8176573622047244
20
-0.4709645669291339
11
0.8227548031496063
21
-0.4636846456692914
0
LINE
8
BLACK
6
CONTINUOUS
10
0.8227548031496063
20
-0.4636846456692914
11
0.8290389763779528
21
-0.4574004724409449
0
LINE
8
BLACK
6
CONTINUOUS
10
0.8290389763779528
20
-0.4574004724409449
11
0.8363188976377952
21
-0.452303031496063
0
LINE
8
BLACK
6
CONTINUOUS
10
0.8363188976377952
20
-0.452303031496063
11
0.8443733858267717
21
-0.4485471653543307
0
LINE
8
BLACK
6
CONTINUOUS
10
0.8443733858267717
20
-0.4485471653543307
11
0.8529577165354331
21
-0.4462470078740157
0
LINE
8
BLACK
6
CONTINUOUS
10
0.8529577165354331
20
-0.4462470078740157
11
0.8618110236220472
21
-0.4454724409448819
0
LINE
8
BLACK
6
CONTINUOUS
10
0.8618110236220472
20
-0.4454724409448819
11
0.8706643307086614
21
-0.4462470078740157
0
LINE
8
BLACK
6
CONTINUOUS
10
0.8133555511811024
20
-0.5050007086614173
11
0.8155753543307086
21
-0.5132851181102362
0
LINE
8
BLACK
6
CONTINUOUS
10
0.8155753543307086
20
-0.5132851181102362
11
0.8191999999999999
21
-0.5210581889763779
0
LINE
8
BLACK
6
CONTINUOUS
10
0.8191999999999999
20
-0.5210581889763779
11
0.8241193307086614
21
-0.528083779527559
0
LINE
8
BLACK
6
CONTINUOUS
10
0.8241193307086614
20
-0.528083779527559
11
0.830183937007874
21
-0.5341483858267716
0
LINE
8
BLACK
6
CONTINUOUS
10
0.830183937007874
20
-0.5341483858267716
11
0.8372095275590551
21
-0.5390677165354331
0
LINE
8
BLACK
6
CONTINUOUS
10
0.8372095275590551
20
-0.5390677165354331
11
0.8449825984251969
21
-0.5426923622047244
0
LINE
8
BLACK
6
CONTINUOUS
10
0.8449825984251969
20
-0.5426923622047244
11
0.8532670078740158
21
-0.5449121653543307
0
LINE
8
BLACK
6
CONTINUOUS
10
0.8532670078740158
20
-0.5449121653543307
11
0.8618110236220472
21
-0.54565968503937
0
LINE
8
BLACK
6
CONTINUOUS
10
0.8618110236220472
20
-0.54565968503937
11
0.8703550393700787
21
-0.5449121653543307
0
LINE
8
BLACK
6
CONTINUOUS
10
0.8703550393700787
20
-0.5449121653543307
11
0.8786394488188977
21
-0.5426923622047244
0
LINE
8
BLACK
6
CONTINUOUS
10
0.8786394488188977
20
-0.5426923622047244
11
0.8864125196850393
21
-0.5390677165354331
0
LINE
8
BLACK
6
CONTINUOUS
10
0.8864125196850393
20
-0.5390677165354331
11
0.8934381102362204
21
-0.5341483858267716
0
LINE
8
BLACK
6
CONTINUOUS
10
0.8934381102362204
20
-0.5341483858267716
11
0.899502716535433
21
-0.528083779527559
0
LINE
8
BLACK
6
CONTINUOUS
10
0.899502716535433
20
-0.528083779527559
11
0.9044220472440945
21
-0.5210581889763779
0
LINE
8
BLACK
6
CONTINUOUS
10
0.9044220472440945
20
-0.5210581889763779
11
0.9080466929133858
21
-0.5132851181102362
0
LINE
8
BLACK
6
CONTINUOUS
10
0.9080466929133858
20
-0.5132851181102362
11
0.9102664960629921
21
-0.5050007086614173
0
LINE
8
BLACK
6
CONTINUOUS
10
0.9102664960629921
20
-0.5050007086614173
11
0.9110140157480314
21
-0.4964566929133858
0
LINE
8
BLACK
6
CONTINUOUS
10
0.9110140157480314
20
-0.4964566929133858
11
0.9102664960629921
21
-0.4879126771653543
0
LINE
8
BLACK
6
CONTINUOUS
10
0.9102664960629921
20
-0.4879126771653543
11
0.9080466929133858
21
-0.4796282677165354
0
LINE
8
BLACK
6
CONTINUOUS
10
0.9080466929133858
20
-0.4796282677165354
11
0.9044220472440945
21
-0.4718551968503937
0
LINE
8
BLACK
6
CONTINUOUS
10
0.9044220472440945
20
-0.4718551968503937
11
0.899502716535433
21
-0.4648296062992126
0
LINE
8
BLACK
6
CONTINUOUS
10
0.899502716535433
20
-0.4648296062992126
11
0.8934381102362204
21
-0.458765
0
LINE
8
BLACK
6
CONTINUOUS
10
0.8934381102362204
20
-0.458765
11
0.8864125196850393
21
-0.4538456692913386
0
LINE
8
BLACK
6
CONTINUOUS
10
0.8864125196850393
20
-0.4538456692913386
11
0.8786394488188977
21
-0.4502210236220472
0
LINE
8
BLACK
6
CONTINUOUS
10
0.8786394488188977
20
-0.4502210236220472
11
0.8703550393700787
21
-0.448001220472441
0
LINE
8
BLACK
6
CONTINUOUS
10
0.8703550393700787
20
-0.448001220472441
11
0.8618110236220472
21
-0.4472537007874016
0
LINE
8
BLACK
6
CONTINUOUS
10
0.8618110236220472
20
-0.4472537007874016
11
0.8532670078740158
21
-0.448001220472441
0
LINE
8
BLACK
6
CONTINUOUS
10
0.8532670078740158
20
-0.448001220472441
11
0.8449825984251969
21
-0.4502210236220472
0
LINE
8
BLACK
6
CONTINUOUS
10
0.8449825984251969
20
-0.4502210236220472
11
0.8372095275590551
21
-0.4538456692913386
0
LINE
8
BLACK
6
CONTINUOUS
10
0.8372095275590551
20
-0.4538456692913386
11
0.830183937007874
21
-0.458765
0
LINE
8
BLACK
6
CONTINUOUS
10
0.830183937007874
20
-0.458765
11
0.8241193307086614
21
-0.4648296062992126
0
LINE
8
BLACK
6
CONTINUOUS
10
0.8241193307086614
20
-0.4648296062992126
11
0.8191999999999999
21
-0.4718551968503937
0
LINE
8
BLACK
6
CONTINUOUS
10
0.8191999999999999
20
-0.4718551968503937
11
0.8155753543307086
21
-0.4796282677165354
0
LINE
8
BLACK
6
CONTINUOUS
10
0.8155753543307086
20
-0.4796282677165354
11
0.8133555511811024
21
-0.4879126771653543
0
LINE
8
BLACK
6
CONTINUOUS
10
0.8133555511811024
20
-0.4879126771653543
11
0.812608031496063
21
-0.4964566929133858
0
LINE
8
BLACK
6
CONTINUOUS
10
0.812608031496063
20
-0.4964566929133858
11
0.8133555511811024
21
-0.5050007086614173
0
LINE
8
BLACK
6
CONTINUOUS
10
0.5304385039370079
20
-0.1551072834645669
11
0.5425302362204725
21
-0.1582118897637795
0
LINE
8
BLACK
6
CONTINUOUS
10
0.5425302362204725
20
-0.1582118897637795
11
0.5541375196850393
21
-0.1628075590551181
0
LINE
8
BLACK
6
CONTINUOUS
10
0.5541375196850393
20
-0.1628075590551181
11
0.5650772834645669
21
-0.1688217322834646
0
LINE
8
BLACK
6
CONTINUOUS
10
0.5650772834645669
20
-0.1688217322834646
11
0.5751770078740157
21
-0.1761596062992126
0
LINE
8
BLACK
6
CONTINUOUS
10
0.5751770078740157
20
-0.1761596062992126
11
0.5842774015748031
21
-0.1847054724409449
0
LINE
8
BLACK
6
CONTINUOUS
10
0.5842774015748031
20
-0.1847054724409449
11
0.5922349606299212
21
-0.1943244881889764
0
LINE
8
BLACK
6
CONTINUOUS
10
0.5922349606299212
20
-0.1943244881889764
11
0.5989241732283465
21
-0.2048650393700787
0
LINE
8
BLACK
6
CONTINUOUS
10
0.5989241732283465
20
-0.2048650393700787
11
0.6042396062992126
21
-0.2161608661417323
0
LINE
8
BLACK
6
CONTINUOUS
10
0.6042396062992126
20
-0.2161608661417323
11
0.6080973228346457
21
-0.228033779527559
0
LINE
8
BLACK
6
CONTINUOUS
10
0.6080973228346457
20
-0.228033779527559
11
0.6104366141732284
21
-0.2402966141732283
0
LINE
8
BLACK
6
CONTINUOUS
10
0.6104366141732284
20
-0.2402966141732283
11
0.6112204724409449
21
-0.252755905511811
0
LINE
8
BLACK
6
CONTINUOUS
10
0.6112204724409449
20
-0.252755905511811
11
0.6104366141732284
21
-0.2652151968503937
0
LINE
8
BLACK
6
CONTINUOUS
10
0.6104366141732284
20
-0.2652151968503937
11
0.6080973228346457
21
-0.277478031496063
0
LINE
8
BLACK
6
CONTINUOUS
10
0.6080973228346457
20
-0.277478031496063
11
0.6042396062992126
21
-0.2893509448818898
0
LINE
8
BLACK
6
CONTINUOUS
10
0.6042396062992126
20
-0.2893509448818898
11
0.5989241732283465
21
-0.3006467716535433
0
LINE
8
BLACK
6
CONTINUOUS
10
0.5989241732283465
20
-0.3006467716535433
11
0.5922349606299212
21
-0.3111873228346457
0
LINE
8
BLACK
6
CONTINUOUS
10
0.5922349606299212
20
-0.3111873228346457
11
0.5842774015748031
21
-0.3208063385826772
0
LINE
8
BLACK
6
CONTINUOUS
10
0.5842774015748031
20
-0.3208063385826772
11
0.5751770078740157
21
-0.3293522047244095
0
LINE
8
BLACK
6
CONTINUOUS
10
0.5751770078740157
20
-0.3293522047244095
11
0.5650772834645669
21
-0.3366900787401575
0
LINE
8
BLACK
6
CONTINUOUS
10
0.5650772834645669
20
-0.3366900787401575
11
0.5541375196850393
21
-0.3427042519685039
0
LINE
8
BLACK
6
CONTINUOUS
10
0.5541375196850393
20
-0.3427042519685039
11
0.5425302362204725
21
-0.3472999212598425
0
LINE
8
BLACK
6
CONTINUOUS
10
0.5425302362204725
20
-0.3472999212598425
11
0.5304385039370079
21
-0.3504045275590551
0
LINE
8
BLACK
6
CONTINUOUS
10
0.5304385039370079
20
-0.3504045275590551
11
0.5180529921259842
21
-0.3519691732283464
0
LINE
8
BLACK
6
CONTINUOUS
10
0.5180529921259842
20
-0.3519691732283464
11
0.5055690551181102
21
-0.3519691732283464
0
LINE
8
BLACK
6
CONTINUOUS
10
0.5055690551181102
20
-0.3519691732283464
11
0.4931835433070866
21
-0.3504045275590551
0
LINE
8
BLACK
6
CONTINUOUS
10
0.4931835433070866
20
-0.3504045275590551
11
0.481091811023622
21
-0.3472999212598425
0
LINE
8
BLACK
6
CONTINUOUS
10
0.481091811023622
20
-0.3472999212598425
11
0.4694845275590551
21
-0.3427042519685039
0
LINE
8
BLACK
6
CONTINUOUS
10
0.4694845275590551
20
-0.3427042519685039
11
0.4585447637795276
21
-0.3366900787401575
0
LINE
8
BLACK
6
CONTINUOUS
10
0.4585447637795276
20
-0.3366900787401575
11
0.4484450393700787
21
-0.3293522047244095
0
LINE
8
BLACK
6
CONTINUOUS
10
0.4484450393700787
20
-0.3293522047244095
11
0.4393446456692913
21
-0.3208063385826772
0
LINE
8
BLACK
6
CONTINUOUS
10
0.4393446456692913
20
-0.3208063385826772
11
0.4313870866141732
21
-0.3111873228346457
0
LINE
8
BLACK
6
CONTINUOUS
10
0.4313870866141732
20
-0.3111873228346457
11
0.424697874015748
21
-0.3006467716535433
0
LINE
8
BLACK
6
CONTINUOUS
10
0.424697874015748
20
-0.3006467716535433
11
0.4193824409448819
21
-0.2893509448818898
0
LINE
8
BLACK
6
CONTINUOUS
10
0.4193824409448819
20
-0.2893509448818898
11
0.4155247244094488
21
-0.277478031496063
0
LINE
8
BLACK
6
CONTINUOUS
10
0.4155247244094488
20
-0.277478031496063
11
0.4131854330708661
21
-0.2652151968503937
0
LINE
8
BLACK
6
CONTINUOUS
10
0.4131854330708661
20
-0.2652151968503937
11
0.4124015748031496
21
-0.252755905511811
0
LINE
8
BLACK
6
CONTINUOUS
10
0.4124015748031496
20
-0.252755905511811
11
0.4131854330708661
21
-0.2402966141732283
0
LINE
8
BLACK
6
CONTINUOUS
10
0.4131854330708661
20
-0.2402966141732283
11
0.4155247244094488
21
-0.228033779527559
0
LINE
8
BLACK
6
CONTINUOUS
10
0.4155247244094488
20
-0.228033779527559
11
0.4193824409448819
21
-0.2161608661417323
0
LINE
8
BLACK
6
CONTINUOUS
10
0.4193824409448819
20
-0.2161608661417323
11
0.424697874015748
21
-0.2048650393700787
0
LINE
8
BLACK
6
CONTINUOUS
10
0.424697874015748
20
-0.2048650393700787
11
0.4313870866141732
21
-0.1943244881889764
0
LINE
8
BLACK
6
CONTINUOUS
10
0.4313870866141732
20
-0.1943244881889764
11
0.4393446456692913
21
-0.1847054724409449
0
LINE
8
BLACK
6
CONTINUOUS
10
0.4393446456692913
20
-0.1847054724409449
11
0.4484450393700787
21
-0.1761596062992126
0
LINE
8
BLACK
6
CONTINUOUS
10
0.4484450393700787
20
-0.1761596062992126
11
0.4585447637795276
21
-0.1688217322834646
0
LINE
8
BLACK
6
CONTINUOUS
10
0.4585447637795276
20
-0.1688217322834646
11
0.4694845275590551
21
-0.1628075590551181
0
LINE
8
BLACK
6
CONTINUOUS
10
0.4694845275590551
20
-0.1628075590551181
11
0.481091811023622
21
-0.1582118897637795
0
LINE
8
BLACK
6
CONTINUOUS
10
0.481091811023622
20
-0.1582118897637795
11
0.4931835433070866
21
-0.1551072834645669
0
LINE
8
BLACK
6
CONTINUOUS
10
0.4931835433070866
20
-0.1551072834645669
11
0.5055690551181102
21
-0.1535426377952756
0
LINE
8
BLACK
6
CONTINUOUS
10
0.5055690551181102
20
-0.1535426377952756
11
0.5180529921259842
21
-0.1535426377952756
0
LINE
8
BLACK
6
CONTINUOUS
10
0.5180529921259842
20
-0.1535426377952756
11
0.5304385039370079
21
-0.1551072834645669
0
LINE
8
BLACK
6
CONTINUOUS
10
0.4149472834645669
20
-0.2649926377952756
11
0.4172447244094488
21
-0.2770364173228346
0
LINE
8
BLACK
6
CONTINUOUS
10
0.4172447244094488
20
-0.2770364173228346
11
0.4210335826771653
21
-0.2886972440944882
0
LINE
8
BLACK
6
CONTINUOUS
10
0.4210335826771653
20
-0.2886972440944882
11
0.4262540157480315
21
-0.2997912598425197
0
LINE
8
BLACK
6
CONTINUOUS
10
0.4262540157480315
20
-0.2997912598425197
11
0.4328237795275591
21
-0.3101435039370078
0
LINE
8
BLACK
6
CONTINUOUS
10
0.4328237795275591
20
-0.3101435039370078
11
0.4406391732283464
21
-0.3195907086614173
0
LINE
8
BLACK
6
CONTINUOUS
10
0.4406391732283464
20
-0.3195907086614173
11
0.4495770078740157
21
-0.3279838976377953
0
LINE
8
BLACK
6
CONTINUOUS
10
0.4495770078740157
20
-0.3279838976377953
11
0.4594962992125984
21
-0.3351907086614173
0
LINE
8
BLACK
6
CONTINUOUS
10
0.4594962992125984
20
-0.3351907086614173
11
0.4702406299212598
21
-0.3410974409448819
0
LINE
8
BLACK
6
CONTINUOUS
10
0.4702406299212598
20
-0.3410974409448819
11
0.4816405905511811
21
-0.3456109842519685
0
LINE
8
BLACK
6
CONTINUOUS
10
0.4816405905511811
20
-0.3456109842519685
11
0.4935162992125984
21
-0.3486601574803149
0
LINE
8
BLACK
6
CONTINUOUS
10
0.4935162992125984
20
-0.3486601574803149
11
0.5056805511811023
21
-0.3501968503937008
0
LINE
8
BLACK
6
CONTINUOUS
10
0.5056805511811023
20
-0.3501968503937008
11
0.5179414960629921
21
-0.3501968503937008
0
LINE
8
BLACK
6
CONTINUOUS
10
0.5179414960629921
20
-0.3501968503937008
11
0.530105748031496
21
-0.3486601574803149
0
LINE
8
BLACK
6
CONTINUOUS
10
0.530105748031496
20
-0.3486601574803149
11
0.5419814566929134
21
-0.3456109842519685
0
LINE
8
BLACK
6
CONTINUOUS
10
0.5419814566929134
20
-0.3456109842519685
11
0.5533814173228346
21
-0.3410974409448819
0
LINE
8
BLACK
6
CONTINUOUS
10
0.5533814173228346
20
-0.3410974409448819
11
0.5641257480314961
21
-0.3351907086614173
0
LINE
8
BLACK
6
CONTINUOUS
10
0.5641257480314961
20
-0.3351907086614173
11
0.5740450393700788
21
-0.3279838976377953
0
LINE
8
BLACK
6
CONTINUOUS
10
0.5740450393700788
20
-0.3279838976377953
11
0.582982874015748
21
-0.3195907086614173
0
LINE
8
BLACK
6
CONTINUOUS
10
0.582982874015748
20
-0.3195907086614173
11
0.5907982677165354
21
-0.3101435039370078
0
LINE
8
BLACK
6
CONTINUOUS
10
0.5907982677165354
20
-0.3101435039370078
11
0.597368031496063
21
-0.2997912598425197
0
LINE
8
BLACK
6
CONTINUOUS
10
0.597368031496063
20
-0.2997912598425197
11
0.6025884645669292
21
-0.2886972440944882
0
LINE
8
BLACK
6
CONTINUOUS
10
0.6025884645669292
20
-0.2886972440944882
11
0.6063773228346456
21
-0.2770364173228346
0
LINE
8
BLACK
6
CONTINUOUS
10
0.6063773228346456
20
-0.2770364173228346
11
0.6086747637795276
21
-0.2649926377952756
0
LINE
8
BLACK
6
CONTINUOUS
10
0.6086747637795276
20
-0.2649926377952756
11
0.6094446456692914
21
-0.252755905511811
0
LINE
8
BLACK
6
CONTINUOUS
10
0.6094446456692914
20
-0.252755905511811
11
0.6086747637795276
21
-0.2405191732283465
0
LINE
8
BLACK
6
CONTINUOUS
10
0.6086747637795276
20
-0.2405191732283465
11
0.6063773228346456
21
-0.2284753937007874
0
LINE
8
BLACK
6
CONTINUOUS
10
0.6063773228346456
20
-0.2284753937007874
11
0.6025884645669292
21
-0.2168145669291338
0
LINE
8
BLACK
6
CONTINUOUS
10
0.6025884645669292
20
-0.2168145669291338
11
0.597368031496063
21
-0.2057205511811024
0
LINE
8
BLACK
6
CONTINUOUS
10
0.597368031496063
20
-0.2057205511811024
11
0.5907982677165354
21
-0.1953683070866142
0
LINE
8
BLACK
6
CONTINUOUS
10
0.5907982677165354
20
-0.1953683070866142
11
0.582982874015748
21
-0.1859211023622047
0
LINE
8
BLACK
6
CONTINUOUS
10
0.582982874015748
20
-0.1859211023622047
11
0.5740450393700788
21
-0.1775279133858268
0
LINE
8
BLACK
6
CONTINUOUS
10
0.5740450393700788
20
-0.1775279133858268
11
0.5641257480314961
21
-0.1703211023622047
0
LINE
8
BLACK
6
CONTINUOUS
10
0.5641257480314961
20
-0.1703211023622047
11
0.5533814173228346
21
-0.1644143700787402
0
LINE
8
BLACK
6
CONTINUOUS
10
0.5533814173228346
20
-0.1644143700787402
11
0.5419814566929134
21
-0.1599008267716535
0
LINE
8
BLACK
6
CONTINUOUS
10
0.5419814566929134
20
-0.1599008267716535
11
0.530105748031496
21
-0.1568516535433071
0
LINE
8
BLACK
6
CONTINUOUS
10
0.530105748031496
20
-0.1568516535433071
11
0.5179414960629921
21
-0.1553149606299213
0
LINE
8
BLACK
6
CONTINUOUS
10
0.5179414960629921
20
-0.1553149606299213
11
0.5056805511811023
21
-0.1553149606299213
0
LINE
8
BLACK
6
CONTINUOUS
10
0.5056805511811023
20
-0.1553149606299213
11
0.4935162992125984
21
-0.1568516535433071
0
LINE
8
BLACK
6
CONTINUOUS
10
0.4935162992125984
20
-0.1568516535433071
11
0.4816405905511811
21
-0.1599008267716535
0
LINE
8
BLACK
6
CONTINUOUS
10
0.4816405905511811
20
-0.1599008267716535
11
0.4702406299212598
21
-0.1644143700787402
0
LINE
8
BLACK
6
CONTINUOUS
10
0.4702406299212598
20
-0.1644143700787402
11
0.4594962992125984
21
-0.1703211023622047
0
LINE
8
BLACK
6
CONTINUOUS
10
0.4594962992125984
20
-0.1703211023622047
11
0.4495770078740157
21
-0.1775279133858268
0
LINE
8
BLACK
6
CONTINUOUS
10
0.4495770078740157
20
-0.1775279133858268
11
0.4406391732283464
21
-0.1859211023622047
0
LINE
8
BLACK
6
CONTINUOUS
10
0.4406391732283464
20
-0.1859211023622047
11
0.4328237795275591
21
-0.1953683070866142
0
LINE
8
BLACK
6
CONTINUOUS
10
0.4328237795275591
20
-0.1953683070866142
11
0.4262540157480315
21
-0.2057205511811024
0
LINE
8
BLACK
6
CONTINUOUS
10
0.4262540157480315
20
-0.2057205511811024
11
0.4210335826771653
21
-0.2168145669291338
0
LINE
8
BLACK
6
CONTINUOUS
10
0.4210335826771653
20
-0.2168145669291338
11
0.4172447244094488
21
-0.2284753937007874
0
LINE
8
BLACK
6
CONTINUOUS
10
0.4172447244094488
20
-0.2284753937007874
11
0.4149472834645669
21
-0.2405191732283465
0
LINE
8
BLACK
6
CONTINUOUS
10
0.4149472834645669
20
-0.2405191732283465
11
0.4141774015748032
21
-0.252755905511811
0
LINE
8
BLACK
6
CONTINUOUS
10
0.4141774015748032
20
-0.252755905511811
11
0.4149472834645669
21
-0.2649926377952756
0
LINE
8
BLACK
6
CONTINUOUS
10
0.534362874015748
20
-0.0959042913385827
11
0.5491704724409449
21
-0.0987581889763779
0
LINE
8
BLACK
6
CONTINUOUS
10
0.5491704724409449
20
-0.0987581889763779
11
0.5636397244094488
21
-0.1030067716535433
0
LINE
8
BLACK
6
CONTINUOUS
10
0.5636397244094488
20
-0.1030067716535433
11
0.5776395669291339
21
-0.1086114566929134
0
LINE
8
BLACK
6
CONTINUOUS
10
0.5776395669291339
20
-0.1086114566929134
11
0.5910433070866141
21
-0.1155215748031496
0
LINE
8
BLACK
6
CONTINUOUS
10
0.5910433070866141
20
-0.1155215748031496
11
0.6037294881889763
21
-0.1236744881889764
0
LINE
8
BLACK
6
CONTINUOUS
10
0.6037294881889763
20
-0.1236744881889764
11
0.6155832283464566
21
-0.1329963779527559
0
LINE
8
BLACK
6
CONTINUOUS
10
0.6155832283464566
20
-0.1329963779527559
11
0.6264972440944881
21
-0.1434028346456693
0
LINE
8
BLACK
6
CONTINUOUS
10
0.6264972440944881
20
-0.1434028346456693
11
0.6363725984251969
21
-0.1547996062992126
0
LINE
8
BLACK
6
CONTINUOUS
10
0.6363725984251969
20
-0.1547996062992126
11
0.6451198818897638
21
-0.1670835039370079
0
LINE
8
BLACK
6
CONTINUOUS
10
0.6451198818897638
20
-0.1670835039370079
11
0.6526599606299213
21
-0.1801432283464567
0
LINE
8
BLACK
6
CONTINUOUS
10
0.6526599606299213
20
-0.1801432283464567
11
0.6589244488188977
21
-0.1938605905511811
0
LINE
8
BLACK
6
CONTINUOUS
10
0.6589244488188977
20
-0.1938605905511811
11
0.663856653543307
21
-0.2081112598425197
0
LINE
8
BLACK
6
CONTINUOUS
10
0.663856653543307
20
-0.2081112598425197
11
0.6674119291338583
21
-0.2227662992125984
0
LINE
8
BLACK
6
CONTINUOUS
10
0.6674119291338583
20
-0.2227662992125984
11
0.669558031496063
21
-0.237692874015748
0
LINE
8
BLACK
6
CONTINUOUS
10
0.669558031496063
20
-0.237692874015748
11
0.6702755905511811
21
-0.252755905511811
0
LINE
8
BLACK
6
CONTINUOUS
10
0.6702755905511811
20
-0.252755905511811
11
0.6702755511811024
21
-0.2527560236220472
0
LINE
8
BLACK
6
CONTINUOUS
10
0.6702755511811024
20
-0.2527560236220472
11
0.6702755511811024
21
-0.2595543700787402
0
LINE
8
BLACK
6
CONTINUOUS
10
0.6702755511811024
20
-0.2595543700787402
11
0.6716082677165354
21
-0.2730858267716536
0
LINE
8
BLACK
6
CONTINUOUS
10
0.6716082677165354
20
-0.2730858267716536
11
0.6742609055118111
21
-0.2864214960629921
0
LINE
8
BLACK
6
CONTINUOUS
10
0.6742609055118111
20
-0.2864214960629921
11
0.678207874015748
21
-0.2994329133858268
0
LINE
8
BLACK
6
CONTINUOUS
10
0.678207874015748
20
-0.2994329133858268
11
0.683411220472441
21
-0.311994842519685
0
LINE
8
BLACK
6
CONTINUOUS
10
0.683411220472441
20
-0.311994842519685
11
0.6898207480314961
21
-0.3239862598425197
0
LINE
8
BLACK
6
CONTINUOUS
10
0.6898207480314961
20
-0.3239862598425197
11
0.6973748031496063
21
-0.3352916929133858
0
LINE
8
BLACK
6
CONTINUOUS
10
0.6973748031496063
20
-0.3352916929133858
11
0.7060005905511811
21
-0.3458022440944882
0
LINE
8
BLACK
6
CONTINUOUS
10
0.7060005905511811
20
-0.3458022440944882
11
0.7156150787401575
21
-0.3554167322834645
0
LINE
8
BLACK
6
CONTINUOUS
10
0.7156150787401575
20
-0.3554167322834645
11
0.7261256299212598
21
-0.3640425196850394
0
LINE
8
BLACK
6
CONTINUOUS
10
0.7261256299212598
20
-0.3640425196850394
11
0.737431062992126
21
-0.3715965748031496
0
LINE
8
BLACK
6
CONTINUOUS
10
0.737431062992126
20
-0.3715965748031496
11
0.7494224803149606
21
-0.3780061023622047
0
LINE
8
BLACK
6
CONTINUOUS
10
0.7494224803149606
20
-0.3780061023622047
11
0.7619844094488188
21
-0.3832094488188976
0
LINE
8
BLACK
6
CONTINUOUS
10
0.7619844094488188
20
-0.3832094488188976
11
0.7749958267716536
21
-0.3871564173228346
0
LINE
8
BLACK
6
CONTINUOUS
10
0.7749958267716536
20
-0.3871564173228346
11
0.7883314960629921
21
-0.3898090551181102
0
LINE
8
BLACK
6
CONTINUOUS
10
0.7883314960629921
20
-0.3898090551181102
11
0.8018629527559055
21
-0.3911417716535433
0
LINE
8
BLACK
6
CONTINUOUS
10
0.8018629527559055
20
-0.3911417716535433
11
0.8086613385826772
21
-0.3911417716535433
0
LINE
8
BLACK
6
CONTINUOUS
10
0.8086613385826772
20
-0.3911417716535433
11
0.8086614173228346
21
-0.3911417322834645
0
LINE
8
BLACK
6
CONTINUOUS
10
0.8086614173228346
20
-0.3911417322834645
11
0.8618110236220472
21
-0.3911417322834645
0
LINE
8
BLACK
6
CONTINUOUS
10
0.8618110236220472
20
-0.3911417322834645
11
0.8736025590551181
21
-0.391803937007874
0
LINE
8
BLACK
6
CONTINUOUS
10
0.8736025590551181
20
-0.391803937007874
11
0.8852457874015748
21
-0.3937822047244094
0
LINE
8
BLACK
6
CONTINUOUS
10
0.8852457874015748
20
-0.3937822047244094
11
0.8965943307086613
21
-0.3970516535433071
0
LINE
8
BLACK
6
CONTINUOUS
10
0.8965943307086613
20
-0.3970516535433071
11
0.9075054724409448
21
-0.4015711811023622
0
LINE
8
BLACK
6
CONTINUOUS
10
0.9075054724409448
20
-0.4015711811023622
11
0.917841968503937
21
-0.4072839763779528
0
LINE
8
BLACK
6
CONTINUOUS
10
0.917841968503937
20
-0.4072839763779528
11
0.9274738188976378
21
-0.4141181496062992
0
LINE
8
BLACK
6
CONTINUOUS
10
0.9274738188976378
20
-0.4141181496062992
11
0.9362799606299212
21
-0.4219877559055118
0
LINE
8
BLACK
6
CONTINUOUS
10
0.9362799606299212
20
-0.4219877559055118
11
0.9441495669291339
21
-0.4307938976377952
0
LINE
8
BLACK
6
CONTINUOUS
10
0.9441495669291339
20
-0.4307938976377952
11
0.9509837401574803
21
-0.440425748031496
0
LINE
8
BLACK
6
CONTINUOUS
10
0.9509837401574803
20
-0.440425748031496
11
0.9566965354330709
21
-0.4507622440944882
0
LINE
8
BLACK
6
CONTINUOUS
10
0.9566965354330709
20
-0.4507622440944882
11
0.9612160629921259
21
-0.4616733858267716
0
LINE
8
BLACK
6
CONTINUOUS
10
0.9612160629921259
20
-0.4616733858267716
11
0.9644855118110236
21
-0.4730219291338583
0
LINE
8
BLACK
6
CONTINUOUS
10
0.9644855118110236
20
-0.4730219291338583
11
0.966463779527559
21
-0.484665157480315
0
LINE
8
BLACK
6
CONTINUOUS
10
0.966463779527559
20
-0.484665157480315
11
0.9671259842519685
21
-0.4964566929133858
0
LINE
8
BLACK
6
CONTINUOUS
10
0.9671259842519685
20
-0.4964566929133858
11
0.9671259842519685
21
-2.2964566929133858
0
LINE
8
BLACK
6
CONTINUOUS
10
0.9671259842519685
20
-2.2964566929133858
11
0.966463779527559
21
-2.3082482283464567
0
LINE
8
BLACK
6
CONTINUOUS
10
0.966463779527559
20
-2.3082482283464567
11
0.9644855118110236
21
-2.3198914566929134
0
LINE
8
BLACK
6
CONTINUOUS
10
0.9644855118110236
20
-2.3198914566929134
11
0.9612160629921259
21
-2.3312399999999998
0
LINE
8
BLACK
6
CONTINUOUS
10
0.9612160629921259
20
-2.3312399999999998
11
0.9566965354330709
21
-2.3421511417322836
0
LINE
8
BLACK
6
CONTINUOUS
10
0.9566965354330709
20
-2.3421511417322836
11
0.9509837401574803
21
-2.3524876377952757
0
LINE
8
BLACK
6
CONTINUOUS
10
0.9509837401574803
20
-2.3524876377952757
11
0.9441495669291339
21
-2.3621194881889762
0
LINE
8
BLACK
6
CONTINUOUS
10
0.9441495669291339
20
-2.3621194881889762
11
0.9362799606299212
21
-2.3709256299212598
0
LINE
8
BLACK
6
CONTINUOUS
10
0.9362799606299212
20
-2.3709256299212598
11
0.9274738188976378
21
-2.3787952362204723
0
LINE
8
BLACK
6
CONTINUOUS
10
0.9274738188976378
20
-2.3787952362204723
11
0.917841968503937
21
-2.3856294094488186
0
LINE
8
BLACK
6
CONTINUOUS
10
0.917841968503937
20
-2.3856294094488186
11
0.9075054724409448
21
-2.3913422047244093
0
LINE
8
BLACK
6
CONTINUOUS
10
0.9075054724409448
20
-2.3913422047244093
11
0.8965943307086613
21
-2.3958617322834646
0
LINE
8
BLACK
6
CONTINUOUS
10
0.8965943307086613
20
-2.3958617322834646
11
0.8852457874015748
21
-2.3991311811023621
0
LINE
8
BLACK
6
CONTINUOUS
10
0.8852457874015748
20
-2.3991311811023621
11
0.8736025590551181
21
-2.4011094488188975
0
LINE
8
BLACK
6
CONTINUOUS
10
0.8736025590551181
20
-2.4011094488188975
11
0.8618110236220472
21
-2.4017716535433071
0
LINE
8
BLACK
6
CONTINUOUS
10
0.8618110236220472
20
-2.4017716535433071
11
0.1618110236220472
21
-2.4017716535433071
0
LINE
8
BLACK
6
CONTINUOUS
10
0.1618110236220472
20
-2.4017716535433071
11
0.1500194881889764
21
-2.4011094488188975
0
LINE
8
BLACK
6
CONTINUOUS
10
0.1500194881889764
20
-2.4011094488188975
11
0.1383762598425197
21
-2.3991311811023621
0
LINE
8
BLACK
6
CONTINUOUS
10
0.1383762598425197
20
-2.3991311811023621
11
0.1270277165354331
21
-2.3958617322834646
0
LINE
8
BLACK
6
CONTINUOUS
10
0.1270277165354331
20
-2.3958617322834646
11
0.1161165748031496
21
-2.3913422047244093
0
LINE
8
BLACK
6
CONTINUOUS
10
0.1161165748031496
20
-2.3913422047244093
11
0.1057800787401575
21
-2.3856294094488186
0
LINE
8
BLACK
6
CONTINUOUS
10
0.1057800787401575
20
-2.3856294094488186
11
0.0961482283464567
21
-2.3787952362204723
0
LINE
8
BLACK
6
CONTINUOUS
10
0.0961482283464567
20
-2.3787952362204723
11
0.0873420866141732
21
-2.3709256299212598
0
LINE
8
BLACK
6
CONTINUOUS
10
0.0873420866141732
20
-2.3709256299212598
11
0.0794724803149606
21
-2.3621194881889762
0
LINE
8
BLACK
6
CONTINUOUS
10
0.0794724803149606
20
-2.3621194881889762
11
0.0726383070866142
21
-2.3524876377952757
0
LINE
8
BLACK
6
CONTINUOUS
10
0.0726383070866142
20
-2.3524876377952757
11
0.0669255118110236
21
-2.3421511417322836
0
LINE
8
BLACK
6
CONTINUOUS
10
0.0669255118110236
20
-2.3421511417322836
11
0.0624059842519685
21
-2.3312399999999998
0
LINE
8
BLACK
6
CONTINUOUS
10
0.0624059842519685
20
-2.3312399999999998
11
0.0591365354330709
21
-2.3198914566929134
0
LINE
8
BLACK
6
CONTINUOUS
10
0.0591365354330709
20
-2.3198914566929134
11
0.0571582677165354
21
-2.3082482283464567
0
LINE
8
BLACK
6
CONTINUOUS
10
0.0571582677165354
20
-2.3082482283464567
11
0.056496062992126
21
-2.2964566929133858
0
LINE
8
BLACK
6
CONTINUOUS
10
0.056496062992126
20
-2.2964566929133858
11
0.056496062992126
21
-0.4964566929133858
0
LINE
8
BLACK
6
CONTINUOUS
10
0.056496062992126
20
-0.4964566929133858
11
0.0571582677165354
21
-0.484665157480315
0
LINE
8
BLACK
6
CONTINUOUS
10
0.0571582677165354
20
-0.484665157480315
11
0.0591365354330709
21
-0.4730219291338583
0
LINE
8
BLACK
6
CONTINUOUS
10
0.0591365354330709
20
-0.4730219291338583
11
0.0624060236220472
21
-0.4616733858267716
0
LINE
8
BLACK
6
CONTINUOUS
10
0.0624060236220472
20
-0.4616733858267716
11
0.0669255511811024
21
-0.4507622834645669
0
LINE
8
BLACK
6
CONTINUOUS
10
0.0669255511811024
20
-0.4507622834645669
11
0.0726383464566929
21
-0.4404257874015748
0
LINE
8
BLACK
6
CONTINUOUS
10
0.0726383464566929
20
-0.4404257874015748
11
0.0794725196850394
21
-0.430793937007874
0
LINE
8
BLACK
6
CONTINUOUS
10
0.0794725196850394
20
-0.430793937007874
11
0.087342125984252
21
-0.4219877952755905
0
LINE
8
BLACK
6
CONTINUOUS
10
0.087342125984252
20
-0.4219877952755905
11
0.0961482677165354
21
-0.4141181889763779
0
LINE
8
BLACK
6
CONTINUOUS
10
0.0961482677165354
20
-0.4141181889763779
11
0.1057801181102362
21
-0.4072840157480315
0
LINE
8
BLACK
6
CONTINUOUS
10
0.1057801181102362
20
-0.4072840157480315
11
0.1161166141732283
21
-0.4015712204724409
0
LINE
8
BLACK
6
CONTINUOUS
10
0.1161166141732283
20
-0.4015712204724409
11
0.1270277165354331
21
-0.3970516929133858
0
LINE
8
BLACK
6
CONTINUOUS
10
0.1270277165354331
20
-0.3970516929133858
11
0.1383762598425197
21
-0.3937822047244094
0
LINE
8
BLACK
6
CONTINUOUS
10
0.1383762598425197
20
-0.3937822047244094
11
0.1500194881889764
21
-0.391803937007874
0
LINE
8
BLACK
6
CONTINUOUS
10
0.1500194881889764
20
-0.391803937007874
11
0.1618110236220472
21
-0.3911417322834645
0
LINE
8
BLACK
6
CONTINUOUS
10
0.1618110236220472
20
-0.3911417322834645
11
0.2149606299212598
21
-0.3911417322834645
0
LINE
8
BLACK
6
CONTINUOUS
10
0.2149606299212598
20
-0.3911417322834645
11
0.2149607086614173
21
-0.3911417716535433
0
LINE
8
BLACK
6
CONTINUOUS
10
0.2149607086614173
20
-0.3911417716535433
11
0.221759094488189
21
-0.3911417716535433
0
LINE
8
BLACK
6
CONTINUOUS
10
0.221759094488189
20
-0.3911417716535433
11
0.2352905511811024
21
-0.3898090551181102
0
LINE
8
BLACK
6
CONTINUOUS
10
0.2352905511811024
20
-0.3898090551181102
11
0.2486262204724409
21
-0.3871564173228346
0
LINE
8
BLACK
6
CONTINUOUS
10
0.2486262204724409
20
-0.3871564173228346
11
0.2616376377952756
21
-0.3832094488188976
0
LINE
8
BLACK
6
CONTINUOUS
10
0.2616376377952756
20
-0.3832094488188976
11
0.2741995669291338
21
-0.3780061023622047
0
LINE
8
BLACK
6
CONTINUOUS
10
0.2741995669291338
20
-0.3780061023622047
11
0.2861909842519685
21
-0.3715965748031496
0
LINE
8
BLACK
6
CONTINUOUS
10
0.2861909842519685
20
-0.3715965748031496
11
0.2974964173228347
21
-0.3640425196850394
0
LINE
8
BLACK
6
CONTINUOUS
10
0.2974964173228347
20
-0.3640425196850394
11
0.308006968503937
21
-0.3554167322834645
0
LINE
8
BLACK
6
CONTINUOUS
10
0.308006968503937
20
-0.3554167322834645
11
0.3176214566929134
21
-0.3458022440944882
0
LINE
8
BLACK
6
CONTINUOUS
10
0.3176214566929134
20
-0.3458022440944882
11
0.3262472440944882
21
-0.3352916929133858
0
LINE
8
BLACK
6
CONTINUOUS
10
0.3262472440944882
20
-0.3352916929133858
11
0.3338012992125984
21
-0.3239862598425197
0
LINE
8
BLACK
6
CONTINUOUS
10
0.3338012992125984
20
-0.3239862598425197
11
0.3402108267716535
21
-0.311994842519685
0
LINE
8
BLACK
6
CONTINUOUS
10
0.3402108267716535
20
-0.311994842519685
11
0.3454141732283464
21
-0.2994329133858268
0
LINE
8
BLACK
6
CONTINUOUS
10
0.3454141732283464
20
-0.2994329133858268
11
0.3493611417322834
21
-0.2864214960629921
0
LINE
8
BLACK
6
CONTINUOUS
10
0.3493611417322834
20
-0.2864214960629921
11
0.352013779527559
21
-0.2730858267716536
0
LINE
8
BLACK
6
CONTINUOUS
10
0.352013779527559
20
-0.2730858267716536
11
0.3533464960629921
21
-0.2595543700787402
0
LINE
8
BLACK
6
CONTINUOUS
10
0.3533464960629921
20
-0.2595543700787402
11
0.3533464960629921
21
-0.2527560236220472
0
LINE
8
BLACK
6
CONTINUOUS
10
0.3533464960629921
20
-0.2527560236220472
11
0.3533464566929134
21
-0.252755905511811
0
LINE
8
BLACK
6
CONTINUOUS
10
0.3533464566929134
20
-0.252755905511811
11
0.3540640157480315
21
-0.237692874015748
0
LINE
8
BLACK
6
CONTINUOUS
10
0.3540640157480315
20
-0.237692874015748
11
0.3562101181102362
21
-0.2227662992125984
0
LINE
8
BLACK
6
CONTINUOUS
10
0.3562101181102362
20
-0.2227662992125984
11
0.3597653937007874
21
-0.2081112598425197
0
LINE
8
BLACK
6
CONTINUOUS
10
0.3597653937007874
20
-0.2081112598425197
11
0.3646975984251968
21
-0.1938605905511811
0
LINE
8
BLACK
6
CONTINUOUS
10
0.3646975984251968
20
-0.1938605905511811
11
0.3709620866141732
21
-0.1801432283464567
0
LINE
8
BLACK
6
CONTINUOUS
10
0.3709620866141732
20
-0.1801432283464567
11
0.3785021653543307
21
-0.1670835039370079
0
LINE
8
BLACK
6
CONTINUOUS
10
0.3785021653543307
20
-0.1670835039370079
11
0.3872494488188976
21
-0.1547996062992126
0
LINE
8
BLACK
6
CONTINUOUS
10
0.3872494488188976
20
-0.1547996062992126
11
0.3971248031496063
21
-0.1434028346456693
0
LINE
8
BLACK
6
CONTINUOUS
10
0.3971248031496063
20
-0.1434028346456693
11
0.4080388188976378
21
-0.1329963779527559
0
LINE
8
BLACK
6
CONTINUOUS
10
0.4080388188976378
20
-0.1329963779527559
11
0.4198925590551181
21
-0.1236744881889764
0
LINE
8
BLACK
6
CONTINUOUS
10
0.4198925590551181
20
-0.1236744881889764
11
0.4325787401574803
21
-0.1155215748031496
0
LINE
8
BLACK
6
CONTINUOUS
10
0.4325787401574803
20
-0.1155215748031496
11
0.4459824803149606
21
-0.1086114566929134
0
LINE
8
BLACK
6
CONTINUOUS
10
0.4459824803149606
20
-0.1086114566929134
11
0.4599823228346457
21
-0.1030067716535433
0
LINE
8
BLACK
6
CONTINUOUS
10
0.4599823228346457
20
-0.1030067716535433
11
0.4744515748031496
21
-0.0987581889763779
0
LINE
8
BLACK
6
CONTINUOUS
10
0.4744515748031496
20
-0.0987581889763779
11
0.4892591732283464
21
-0.0959042913385827
0
LINE
8
BLACK
6
CONTINUOUS
10
0.4892591732283464
20
-0.0959042913385827
11
0.5042709842519685
21
-0.0944708267716535
0
LINE
8
BLACK
6
CONTINUOUS
10
0.5042709842519685
20
-0.0944708267716535
11
0.519351062992126
21
-0.0944708267716535
0
LINE
8
BLACK
6
CONTINUOUS
10
0.519351062992126
20
-0.0944708267716535
11
0.534362874015748
21
-0.0959042913385827
0
LINE
8
BLACK
6
CONTINUOUS
10
0.4888205905511811
20
-0.097766968503937
11
0.4737397244094488
21
-0.1007667322834646
0
LINE
8
BLACK
6
CONTINUOUS
10
0.4737397244094488
20
-0.1007667322834646
11
0.4590255118110236
21
-0.1052302755905512
0
LINE
8
BLACK
6
CONTINUOUS
10
0.4590255118110236
20
-0.1052302755905512
11
0.4448196456692913
21
-0.1111145275590551
0
LINE
8
BLACK
6
CONTINUOUS
10
0.4448196456692913
20
-0.1111145275590551
11
0.431258937007874
21
-0.118362874015748
0
LINE
8
BLACK
6
CONTINUOUS
10
0.431258937007874
20
-0.118362874015748
11
0.4184739763779527
21
-0.1269054724409449
0
LINE
8
BLACK
6
CONTINUOUS
10
0.4184739763779527
20
-0.1269054724409449
11
0.4065879527559055
21
-0.1366601181102362
0
LINE
8
BLACK
6
CONTINUOUS
10
0.4065879527559055
20
-0.1366601181102362
11
0.3957152362204724
21
-0.1475328346456693
0
LINE
8
BLACK
6
CONTINUOUS
10
0.3957152362204724
20
-0.1475328346456693
11
0.3859605905511811
21
-0.1594188582677165
0
LINE
8
BLACK
6
CONTINUOUS
10
0.3859605905511811
20
-0.1594188582677165
11
0.3774179921259843
21
-0.1722038188976378
0
LINE
8
BLACK
6
CONTINUOUS
10
0.3774179921259843
20
-0.1722038188976378
11
0.3701696456692913
21
-0.1857645275590551
0
LINE
8
BLACK
6
CONTINUOUS
10
0.3701696456692913
20
-0.1857645275590551
11
0.3642853937007874
21
-0.1999703937007874
0
LINE
8
BLACK
6
CONTINUOUS
10
0.3642853937007874
20
-0.1999703937007874
11
0.3598218503937008
21
-0.2146846062992126
0
LINE
8
BLACK
6
CONTINUOUS
10
0.3598218503937008
20
-0.2146846062992126
11
0.3568220866141732
21
-0.2297654724409449
0
LINE
8
BLACK
6
CONTINUOUS
10
0.3568220866141732
20
-0.2297654724409449
11
0.3553149606299212
21
-0.2450677559055118
0
LINE
8
BLACK
6
CONTINUOUS
10
0.3553149606299212
20
-0.2450677559055118
11
0.3553149606299212
21
-0.252755748031496
0
LINE
8
BLACK
6
CONTINUOUS
10
0.3553149606299212
20
-0.252755748031496
11
0.355315
21
-0.252755905511811
0
LINE
8
BLACK
6
CONTINUOUS
10
0.355315
20
-0.252755905511811
11
0.3546391732283464
21
-0.266513031496063
0
LINE
8
BLACK
6
CONTINUOUS
10
0.3546391732283464
20
-0.266513031496063
11
0.3526181496062992
21
-0.2801376771653543
0
LINE
8
BLACK
6
CONTINUOUS
10
0.3526181496062992
20
-0.2801376771653543
11
0.3492713779527559
21
-0.2934986220472441
0
LINE
8
BLACK
6
CONTINUOUS
10
0.3492713779527559
20
-0.2934986220472441
11
0.3446311417322834
21
-0.3064672047244094
0
LINE
8
BLACK
6
CONTINUOUS
10
0.3446311417322834
20
-0.3064672047244094
11
0.338742125984252
21
-0.3189185039370079
0
LINE
8
BLACK
6
CONTINUOUS
10
0.338742125984252
20
-0.3189185039370079
11
0.3316610236220472
21
-0.3307325984251969
0
LINE
8
BLACK
6
CONTINUOUS
10
0.3316610236220472
20
-0.3307325984251969
11
0.3234560236220472
21
-0.3417957874015748
0
LINE
8
BLACK
6
CONTINUOUS
10
0.3234560236220472
20
-0.3417957874015748
11
0.3142061417322835
21
-0.3520014173228346
0
LINE
8
BLACK
6
CONTINUOUS
10
0.3142061417322835
20
-0.3520014173228346
11
0.3040005118110236
21
-0.3612512992125984
0
LINE
8
BLACK
6
CONTINUOUS
10
0.3040005118110236
20
-0.3612512992125984
11
0.2929373228346457
21
-0.3694562992125984
0
LINE
8
BLACK
6
CONTINUOUS
10
0.2929373228346457
20
-0.3694562992125984
11
0.2811232283464567
21
-0.3765374015748031
0
LINE
8
BLACK
6
CONTINUOUS
10
0.2811232283464567
20
-0.3765374015748031
11
0.2686719291338583
21
-0.3824264173228346
0
LINE
8
BLACK
6
CONTINUOUS
10
0.2686719291338583
20
-0.3824264173228346
11
0.2557033464566929
21
-0.3870666535433071
0
LINE
8
BLACK
6
CONTINUOUS
10
0.2557033464566929
20
-0.3870666535433071
11
0.2423424015748031
21
-0.3904134251968504
0
LINE
8
BLACK
6
CONTINUOUS
10
0.2423424015748031
20
-0.3904134251968504
11
0.2287177559055118
21
-0.3924344488188976
0
LINE
8
BLACK
6
CONTINUOUS
10
0.2287177559055118
20
-0.3924344488188976
11
0.2149606299212598
21
-0.3931102755905512
0
LINE
8
BLACK
6
CONTINUOUS
10
0.2149606299212598
20
-0.3931102755905512
11
0.2149606299212598
21
-0.3931102362204724
0
LINE
8
BLACK
6
CONTINUOUS
10
0.2149606299212598
20
-0.3931102362204724
11
0.1618110236220472
21
-0.3931102362204724
0
LINE
8
BLACK
6
CONTINUOUS
10
0.1618110236220472
20
-0.3931102362204724
11
0.1560072047244094
21
-0.3931102362204724
0
LINE
8
BLACK
6
CONTINUOUS
10
0.1560072047244094
20
-0.3931102362204724
11
0.1444725984251969
21
-0.3944098818897638
0
LINE
8
BLACK
6
CONTINUOUS
10
0.1444725984251969
20
-0.3944098818897638
11
0.1331559842519685
21
-0.3969928346456693
0
LINE
8
BLACK
6
CONTINUOUS
10
0.1331559842519685
20
-0.3969928346456693
11
0.1221997637795276
21
-0.4008266141732283
0
LINE
8
BLACK
6
CONTINUOUS
10
0.1221997637795276
20
-0.4008266141732283
11
0.1117416535433071
21
-0.4058629527559055
0
LINE
8
BLACK
6
CONTINUOUS
10
0.1117416535433071
20
-0.4058629527559055
11
0.101913188976378
21
-0.4120385826771654
0
LINE
8
BLACK
6
CONTINUOUS
10
0.101913188976378
20
-0.4120385826771654
11
0.0928379921259842
21
-0.4192758267716535
0
LINE
8
BLACK
6
CONTINUOUS
10
0.0928379921259842
20
-0.4192758267716535
11
0.084630157480315
21
-0.4274836614173228
0
LINE
8
BLACK
6
CONTINUOUS
10
0.084630157480315
20
-0.4274836614173228
11
0.0773929133858268
21
-0.4365588582677165
0
LINE
8
BLACK
6
CONTINUOUS
10
0.0773929133858268
20
-0.4365588582677165
11
0.0712172834645669
21
-0.4463873228346457
0
LINE
8
BLACK
6
CONTINUOUS
10
0.0712172834645669
20
-0.4463873228346457
11
0.0661809448818898
21
-0.4568454330708661
0
LINE
8
BLACK
6
CONTINUOUS
10
0.0661809448818898
20
-0.4568454330708661
11
0.0623471653543307
21
-0.467801653543307
0
LINE
8
BLACK
6
CONTINUOUS
10
0.0623471653543307
20
-0.467801653543307
11
0.0597642125984252
21
-0.4791182677165354
0
LINE
8
BLACK
6
CONTINUOUS
10
0.0597642125984252
20
-0.4791182677165354
11
0.0584645669291339
21
-0.490652874015748
0
LINE
8
BLACK
6
CONTINUOUS
10
0.0584645669291339
20
-0.490652874015748
11
0.0584645669291339
21
-0.4964566929133858
0
LINE
8
BLACK
6
CONTINUOUS
10
0.0584645669291339
20
-0.4964566929133858
11
0.0584645669291339
21
-2.2964566929133858
0
LINE
8
BLACK
6
CONTINUOUS
10
0.0584645669291339
20
-2.2964566929133858
11
0.0584645669291339
21
-2.3022605118110238
0
LINE
8
BLACK
6
CONTINUOUS
10
0.0584645669291339
20
-2.3022605118110238
11
0.0597642125984252
21
-2.3137951574803148
0
LINE
8
BLACK
6
CONTINUOUS
10
0.0597642125984252
20
-2.3137951574803148
11
0.0623471653543307
21
-2.3251117322834647
0
LINE
8
BLACK
6
CONTINUOUS
10
0.0623471653543307
20
-2.3251117322834647
11
0.066180905511811
21
-2.3360679921259844
0
LINE
8
BLACK
6
CONTINUOUS
10
0.066180905511811
20
-2.3360679921259844
11
0.0712172834645669
21
-2.3465261023622048
0
LINE
8
BLACK
6
CONTINUOUS
10
0.0712172834645669
20
-2.3465261023622048
11
0.0773929133858268
21
-2.3563545669291339
0
LINE
8
BLACK
6
CONTINUOUS
10
0.0773929133858268
20
-2.3563545669291339
11
0.0846301181102362
21
-2.3654297637795274
0
LINE
8
BLACK
6
CONTINUOUS
10
0.0846301181102362
20
-2.3654297637795274
11
0.0928379527559055
21
-2.3736375984251969
0
LINE
8
BLACK
6
CONTINUOUS
10
0.0928379527559055
20
-2.3736375984251969
11
0.1019131496062992
21
-2.3808748031496063
0
LINE
8
BLACK
6
CONTINUOUS
10
0.1019131496062992
20
-2.3808748031496063
11
0.1117416141732283
21
-2.3870504330708662
0
LINE
8
BLACK
6
CONTINUOUS
10
0.1117416141732283
20
-2.3870504330708662
11
0.1221997244094488
21
-2.392086811023622
0
LINE
8
BLACK
6
CONTINUOUS
10
0.1221997244094488
20
-2.392086811023622
11
0.1331559842519685
21
-2.3959205511811024
0
LINE
8
BLACK
6
CONTINUOUS
10
0.1331559842519685
20
-2.3959205511811024
11
0.1444725590551181
21
-2.398503503937008
0
LINE
8
BLACK
6
CONTINUOUS
10
0.1444725590551181
20
-2.398503503937008
11
0.1560072047244094
21
-2.3998031496062993
0
LINE
8
BLACK
6
CONTINUOUS
10
0.1560072047244094
20
-2.3998031496062993
11
0.1618110236220472
21
-2.3998031496062993
0
LINE
8
BLACK
6
CONTINUOUS
10
0.1618110236220472
20
-2.3998031496062993
11
0.8618110236220472
21
-2.3998031496062993
0
LINE
8
BLACK
6
CONTINUOUS
10
0.8618110236220472
20
-2.3998031496062993
11
0.867614842519685
21
-2.3998031496062993
0
LINE
8
BLACK
6
CONTINUOUS
10
0.867614842519685
20
-2.3998031496062993
11
0.8791494881889763
21
-2.398503503937008
0
LINE
8
BLACK
6
CONTINUOUS
10
0.8791494881889763
20
-2.398503503937008
11
0.8904660629921259
21
-2.3959205511811024
0
LINE
8
BLACK
6
CONTINUOUS
10
0.8904660629921259
20
-2.3959205511811024
11
0.9014223228346456
21
-2.392086811023622
0
LINE
8
BLACK
6
CONTINUOUS
10
0.9014223228346456
20
-2.392086811023622
11
0.9118804330708661
21
-2.3870504330708662
0
LINE
8
BLACK
6
CONTINUOUS
10
0.9118804330708661
20
-2.3870504330708662
11
0.9217088976377953
21
-2.3808748031496063
0
LINE
8
BLACK
6
CONTINUOUS
10
0.9217088976377953
20
-2.3808748031496063
11
0.930784094488189
21
-2.3736375984251969
0
LINE
8
BLACK
6
CONTINUOUS
10
0.930784094488189
20
-2.3736375984251969
11
0.9389919291338582
21
-2.3654297637795274
0
LINE
8
BLACK
6
CONTINUOUS
10
0.9389919291338582
20
-2.3654297637795274
11
0.9462291338582677
21
-2.3563545669291339
0
LINE
8
BLACK
6
CONTINUOUS
10
0.9462291338582677
20
-2.3563545669291339
11
0.9524047637795275
21
-2.3465261023622048
0
LINE
8
BLACK
6
CONTINUOUS
10
0.9524047637795275
20
-2.3465261023622048
11
0.9574411417322835
21
-2.3360679921259844
0
LINE
8
BLACK
6
CONTINUOUS
10
0.9574411417322835
20
-2.3360679921259844
11
0.9612748818897637
21
-2.3251117322834647
0
LINE
8
BLACK
6
CONTINUOUS
10
0.9612748818897637
20
-2.3251117322834647
11
0.9638578346456693
21
-2.3137951574803148
0
LINE
8
BLACK
6
CONTINUOUS
10
0.9638578346456693
20
-2.3137951574803148
11
0.9651574803149606
21
-2.3022605118110238
0
LINE
8
BLACK
6
CONTINUOUS
10
0.9651574803149606
20
-2.3022605118110238
11
0.9651574803149606
21
-2.2964566929133858
0
LINE
8
BLACK
6
CONTINUOUS
10
0.9651574803149606
20
-2.2964566929133858
11
0.9651574803149606
21
-0.4964566929133858
0
LINE
8
BLACK
6
CONTINUOUS
10
0.9651574803149606
20
-0.4964566929133858
11
0.9651574803149606
21
-0.490652874015748
0
LINE
8
BLACK
6
CONTINUOUS
10
0.9651574803149606
20
-0.490652874015748
11
0.9638578346456693
21
-0.4791182283464567
0
LINE
8
BLACK
6
CONTINUOUS
10
0.9638578346456693
20
-0.4791182283464567
11
0.9612748818897637
21
-0.467801653543307
0
LINE
8
BLACK
6
CONTINUOUS
10
0.9612748818897637
20
-0.467801653543307
11
0.9574411417322835
21
-0.4568453937007874
0
LINE
8
BLACK
6
CONTINUOUS
10
0.9574411417322835
20
-0.4568453937007874
11
0.9524047637795275
21
-0.4463872834645669
0
LINE
8
BLACK
6
CONTINUOUS
10
0.9524047637795275
20
-0.4463872834645669
11
0.9462291338582677
21
-0.4365588188976378
0
LINE
8
BLACK
6
CONTINUOUS
10
0.9462291338582677
20
-0.4365588188976378
11
0.9389919291338582
21
-0.4274836220472441
0
LINE
8
BLACK
6
CONTINUOUS
10
0.9389919291338582
20
-0.4274836220472441
11
0.930784094488189
21
-0.4192757874015748
0
LINE
8
BLACK
6
CONTINUOUS
10
0.930784094488189
20
-0.4192757874015748
11
0.9217088976377953
21
-0.4120385826771654
0
LINE
8
BLACK
6
CONTINUOUS
10
0.9217088976377953
20
-0.4120385826771654
11
0.9118804330708661
21
-0.4058629527559055
0
LINE
8
BLACK
6
CONTINUOUS
10
0.9118804330708661
20
-0.4058629527559055
11
0.9014223228346456
21
-0.4008265748031496
0
LINE
8
BLACK
6
CONTINUOUS
10
0.9014223228346456
20
-0.4008265748031496
11
0.8904660629921259
21
-0.3969928346456693
0
LINE
8
BLACK
6
CONTINUOUS
10
0.8904660629921259
20
-0.3969928346456693
11
0.8791494881889763
21
-0.3944098818897638
0
LINE
8
BLACK
6
CONTINUOUS
10
0.8791494881889763
20
-0.3944098818897638
11
0.867614842519685
21
-0.3931102362204724
0
LINE
8
BLACK
6
CONTINUOUS
10
0.867614842519685
20
-0.3931102362204724
11
0.8618110236220472
21
-0.3931102362204724
0
LINE
8
BLACK
6
CONTINUOUS
10
0.8618110236220472
20
-0.3931102362204724
11
0.8086615354330708
21
-0.3931102362204724
0
LINE
8
BLACK
6
CONTINUOUS
10
0.8086615354330708
20
-0.3931102362204724
11
0.8086614173228346
21
-0.3931102755905512
0
LINE
8
BLACK
6
CONTINUOUS
10
0.8086614173228346
20
-0.3931102755905512
11
0.7949042913385826
21
-0.3924344488188976
0
LINE
8
BLACK
6
CONTINUOUS
10
0.7949042913385826
20
-0.3924344488188976
11
0.7812796456692913
21
-0.3904134251968504
0
LINE
8
BLACK
6
CONTINUOUS
10
0.7812796456692913
20
-0.3904134251968504
11
0.7679187007874015
21
-0.3870666535433071
0
LINE
8
BLACK
6
CONTINUOUS
10
0.7679187007874015
20
-0.3870666535433071
11
0.7549501181102362
21
-0.3824264173228346
0
LINE
8
BLACK
6
CONTINUOUS
10
0.7549501181102362
20
-0.3824264173228346
11
0.7424988188976378
21
-0.3765374015748031
0
LINE
8
BLACK
6
CONTINUOUS
10
0.7424988188976378
20
-0.3765374015748031
11
0.7306847244094488
21
-0.3694562992125984
0
LINE
8
BLACK
6
CONTINUOUS
10
0.7306847244094488
20
-0.3694562992125984
11
0.7196215354330708
21
-0.3612512992125984
0
LINE
8
BLACK
6
CONTINUOUS
10
0.7196215354330708
20
-0.3612512992125984
11
0.709415905511811
21
-0.3520014173228346
0
LINE
8
BLACK
6
CONTINUOUS
10
0.709415905511811
20
-0.3520014173228346
11
0.7001660236220473
21
-0.3417957874015748
0
LINE
8
BLACK
6
CONTINUOUS
10
0.7001660236220473
20
-0.3417957874015748
11
0.6919610236220473
21
-0.3307325984251969
0
LINE
8
BLACK
6
CONTINUOUS
10
0.6919610236220473
20
-0.3307325984251969
11
0.6848799212598425
21
-0.3189185039370079
0
LINE
8
BLACK
6
CONTINUOUS
10
0.6848799212598425
20
-0.3189185039370079
11
0.678990905511811
21
-0.3064672047244094
0
LINE
8
BLACK
6
CONTINUOUS
10
0.678990905511811
20
-0.3064672047244094
11
0.6743506692913386
21
-0.2934986220472441
0
LINE
8
BLACK
6
CONTINUOUS
10
0.6743506692913386
20
-0.2934986220472441
11
0.6710038976377952
21
-0.2801376771653543
0
LINE
8
BLACK
6
CONTINUOUS
10
0.6710038976377952
20
-0.2801376771653543
11
0.668982874015748
21
-0.266513031496063
0
LINE
8
BLACK
6
CONTINUOUS
10
0.668982874015748
20
-0.266513031496063
11
0.6683070472440945
21
-0.252755905511811
0
LINE
8
BLACK
6
CONTINUOUS
10
0.6683070472440945
20
-0.252755905511811
11
0.6683070866141733
21
-0.252755905511811
0
LINE
8
BLACK
6
CONTINUOUS
10
0.6683070866141733
20
-0.252755905511811
11
0.6683070866141733
21
-0.2450677559055118
0
LINE
8
BLACK
6
CONTINUOUS
10
0.6683070866141733
20
-0.2450677559055118
11
0.6667999606299212
21
-0.2297654724409449
0
LINE
8
BLACK
6
CONTINUOUS
10
0.6667999606299212
20
-0.2297654724409449
11
0.6638001968503937
21
-0.2146846062992126
0
LINE
8
BLACK
6
CONTINUOUS
10
0.6638001968503937
20
-0.2146846062992126
11
0.6593366535433071
21
-0.1999703937007874
0
LINE
8
BLACK
6
CONTINUOUS
10
0.6593366535433071
20
-0.1999703937007874
11
0.6534524015748031
21
-0.1857645275590551
0
LINE
8
BLACK
6
CONTINUOUS
10
0.6534524015748031
20
-0.1857645275590551
11
0.6462040551181102
21
-0.1722038188976378
0
LINE
8
BLACK
6
CONTINUOUS
10
0.6462040551181102
20
-0.1722038188976378
11
0.6376614566929134
21
-0.1594188582677165
0
LINE
8
BLACK
6
CONTINUOUS
10
0.6376614566929134
20
-0.1594188582677165
11
0.627906811023622
21
-0.1475328346456693
0
LINE
8
BLACK
6
CONTINUOUS
10
0.627906811023622
20
-0.1475328346456693
11
0.6170340944881889
21
-0.1366601181102362
0
LINE
8
BLACK
6
CONTINUOUS
10
0.6170340944881889
20
-0.1366601181102362
11
0.6051480708661418
21
-0.1269054724409449
0
LINE
8
BLACK
6
CONTINUOUS
10
0.6051480708661418
20
-0.1269054724409449
11
0.5923631102362205
21
-0.118362874015748
0
LINE
8
BLACK
6
CONTINUOUS
10
0.5923631102362205
20
-0.118362874015748
11
0.5788024015748031
21
-0.1111145275590551
0
LINE
8
BLACK
6
CONTINUOUS
10
0.5788024015748031
20
-0.1111145275590551
11
0.5645965354330709
21
-0.1052302755905512
0
LINE
8
BLACK
6
CONTINUOUS
10
0.5645965354330709
20
-0.1052302755905512
11
0.5498823228346457
21
-0.1007667322834646
0
LINE
8
BLACK
6
CONTINUOUS
10
0.5498823228346457
20
-0.1007667322834646
11
0.5348014566929133
21
-0.097766968503937
0
LINE
8
BLACK
6
CONTINUOUS
10
0.5348014566929133
20
-0.097766968503937
11
0.5194991732283465
21
-0.096259842519685
0
LINE
8
BLACK
6
CONTINUOUS
10
0.5194991732283465
20
-0.096259842519685
11
0.5041228740157481
21
-0.096259842519685
0
LINE
8
BLACK
6
CONTINUOUS
10
0.5041228740157481
20
-0.096259842519685
11
0.4888205905511811
21
-0.097766968503937
  0
ENDSEC
  0
EOF
